<?xml version="1.0" encoding="UTF-8" standalone="no" ?>
<!DOCTYPE svg PUBLIC "-//W3C//DTD SVG 1.1//EN" "http://www.w3.org/Graphics/SVG/1.1/DTD/svg11.dtd">
<svg xmlns="http://www.w3.org/2000/svg" xmlns:xlink="http://www.w3.org/1999/xlink" version="1.1" width="150" height="150" viewBox="0 0 150 150" xml:space="preserve">
<desc>Created with Fabric.js 5.2.4</desc>
<defs>
</defs>
<g transform="matrix(1 0 0 1 75 75)" id="77de58ab-454a-4aba-b72f-b4bee78d2e0e"  >
<rect style="stroke: none; stroke-width: 1; stroke-dasharray: none; stroke-linecap: butt; stroke-dashoffset: 0; stroke-linejoin: miter; stroke-miterlimit: 4; fill: rgb(255,255,255); fill-rule: nonzero; opacity: 1; visibility: hidden;" vector-effect="non-scaling-stroke"  x="-75" y="-75" rx="0" ry="0" width="150" height="150" />
</g>
<g transform="matrix(Infinity NaN NaN Infinity 0 0)" id="86219079-05eb-4506-a71b-a99bae3d515f"  >
</g>
<g transform="matrix(1 0 0 1 208 75)"  >
<g style="" vector-effect="non-scaling-stroke"   >
		<g transform="matrix(1 0 0 1 -132.85 26.59)"  >
<path style="stroke: none; stroke-width: 1; stroke-dasharray: none; stroke-linecap: butt; stroke-dashoffset: 0; stroke-linejoin: miter; stroke-miterlimit: 4; fill: rgb(255,255,255); fill-rule: nonzero; opacity: 1;" vector-effect="non-scaling-stroke"  transform=" translate(-60.6, -87.19)" d="M 108.4 73.2999 C 104.2 71.8999 89.2998 67.9999 79.0998 79.7999 C 76.9998 71.2999 69.1998 65.4999 60.4998 65.6999 C 51.7998 65.3999 43.9998 71.2999 41.8998 79.7999 C 31.7998 68.1999 17.2998 71.6999 12.7998 73.1999 C 12.9998 76.9999 14.2998 80.6999 16.5998 83.7999 C 29.5998 101.9 47.9998 108.5 60.4998 108.7 C 60.4998 108.7 60.5998 108.7 60.6998 108.7 L 60.7998 108.7 C 60.8998 108.7 60.9998 108.7 61.0998 108.7 C 73.5998 108.5 91.9998 101.9 104.9 83.7999 C 106.9 80.7999 108.2 77.0999 108.4 73.2999 Z" stroke-linecap="round" />
</g>
		<g transform="matrix(1 0 0 1 -132.85 0)"  >
<path style="stroke: none; stroke-width: 1; stroke-dasharray: none; stroke-linecap: butt; stroke-dashoffset: 0; stroke-linejoin: miter; stroke-miterlimit: 4; fill: rgb(207,19,36); fill-rule: nonzero; opacity: 1;" vector-effect="non-scaling-stroke"  transform=" translate(-60.6, -60.6)" d="M 60.6 0 C 94.1 0 121.2 27.1 121.2 60.6 C 121.2 94.1 94.1 121.2 60.6 121.2 C 27.1 121.2 0 94.1 0 60.6 C 0 27.1 27.2 0 60.6 0 Z" stroke-linecap="round" />
</g>
		<g transform="matrix(1 0 0 1 -166.31 -39.2)"  >
<path style="stroke: none; stroke-width: 1; stroke-dasharray: none; stroke-linecap: butt; stroke-dashoffset: 0; stroke-linejoin: miter; stroke-miterlimit: 4; fill: rgb(234,93,12); fill-rule: nonzero; opacity: 1;" vector-effect="non-scaling-stroke"  transform=" translate(-27.14, -21.4)" d="M 25 31.5002 C 28.1 27.9002 32 24.9002 36.2 22.7002 C 28.2 13.4002 21.8 8.8002 19 7.7002 C 16.6 15.2002 19.4 26.9002 22.1 35.1002 C 23 33.9002 24 32.7002 25 31.5002 Z" stroke-linecap="round" />
</g>
		<g transform="matrix(1 0 0 1 -100.08 -39.45)"  >
<path style="stroke: none; stroke-width: 1; stroke-dasharray: none; stroke-linecap: butt; stroke-dashoffset: 0; stroke-linejoin: miter; stroke-miterlimit: 4; fill: rgb(234,93,12); fill-rule: nonzero; opacity: 1;" vector-effect="non-scaling-stroke"  transform=" translate(-93.37, -21.15)" d="M 96.0004 31.5002 C 96.9004 32.5002 97.7004 33.5002 98.5004 34.6002 C 101.1 26.4002 103.8 15.0002 101.4 7.7002 C 98.6004 8.8002 92.3004 13.3002 84.4004 22.5002 C 88.8004 24.7002 92.8004 27.8002 96.0004 31.5002 Z" stroke-linecap="round" />
</g>
		<g transform="matrix(1 0 0 1 -133.03 -19.52)"  >
<path style="stroke: none; stroke-width: 1; stroke-dasharray: none; stroke-linecap: butt; stroke-dashoffset: 0; stroke-linejoin: miter; stroke-miterlimit: 4; fill: rgb(242,143,60); fill-rule: nonzero; opacity: 1;" vector-effect="non-scaling-stroke"  transform=" translate(-60.42, -41.08)" d="M 96.0002 31.5 C 92.7002 27.8 88.8002 24.7 84.4002 22.5 C 92.3002 13.4 98.6002 8.80002 101.4 7.70002 C 103.8 15 101.1 26.4 98.5002 34.6 C 97.7002 33.5 96.9002 32.5 96.0002 31.5 Z M 25.0002 31.5 C 24.0002 32.7 23.0002 33.9 22.1002 35.2 C 19.4002 27 16.6002 15.2 19.0002 7.80002 C 21.8002 8.90002 28.2002 13.5 36.2002 22.8 C 32.0002 24.9 28.2002 27.9 25.0002 31.5 Z M 108.2 68.7 C 106.7 58.6 104.4 49.9 100.9 42.7 C 103.8 35.8 105.8 28.5 106.8 21.1 C 107.5 15.2 107.3 9.10003 105 4.10003 C 104.5 3.00003 103.3 2.40003 102 2.60003 C 100 3.00003 96.4002 4.30002 91.6002 8.20002 C 86.6002 12.3 82.1002 17 78.2002 22.2 C 72.6002 20.5 66.7002 19.6 60.8002 19.6 C 60.7002 19.6 60.6002 19.6 60.5002 19.6 C 60.4002 19.6 60.3002 19.6 60.2002 19.6 C 54.1002 19.5 48.1002 20.5 42.3002 22.3 C 38.3002 17.1 33.8002 12.3 28.7002 8.10003 C 23.8002 4.20003 20.3002 2.90002 18.3002 2.50002 C 17.1002 2.30002 15.9002 2.90002 15.3002 4.00002 C 13.0002 9.00002 12.8002 15 13.5002 20.9 C 14.6002 28.6 16.7002 36.1 19.7002 43.2 C 16.4002 50.3 14.2002 58.8 12.7002 68.6 C 12.5002 70.1 12.4002 71.6 12.5002 73.1 C 17.0002 71.6 31.6002 68.1 41.6002 79.7 C 43.7002 71.2 51.5002 65.4 60.2002 65.6 C 63.3002 65.5 66.4002 66.2 69.2002 67.6 C 74.0002 70.1 77.5002 74.5 78.8002 79.7 C 89.0002 67.9 103.9 71.7 108.1 73.2 C 108.5 71.8 108.4 70.2 108.2 68.7 Z" stroke-linecap="round" />
</g>
		<g transform="matrix(1 0 0 1 -133.07 25.85)"  >
<path style="stroke: none; stroke-width: 1; stroke-dasharray: none; stroke-linecap: butt; stroke-dashoffset: 0; stroke-linejoin: miter; stroke-miterlimit: 4; fill: rgb(34,38,63); fill-rule: nonzero; opacity: 1;" vector-effect="non-scaling-stroke"  transform=" translate(-60.38, -86.45)" d="M 73.8996 90.9998 C 73.3996 91.9998 73.0996 92.9998 73.0996 94.0998 C 73.0996 94.3998 72.7996 94.6998 72.3996 94.6998 L 71.6996 94.6998 L 70.0996 98.8998 C 70.0996 98.9998 69.8996 99.0998 69.7996 99.0998 C 69.6996 99.0998 69.6996 99.0998 69.5996 98.9998 C 69.2996 98.5998 68.9996 98.2998 68.7996 97.8998 C 68.6996 97.7998 68.6996 97.6998 68.6996 97.5998 L 68.6996 92.7998 C 65.9996 93.1998 63.1996 93.3998 60.4996 93.2998 L 60.2996 93.2998 C 57.5996 93.2998 54.7996 93.0998 52.0996 92.6998 L 52.0996 97.4998 C 52.0996 97.5998 52.0996 97.6998 51.9996 97.7998 C 51.7996 98.1998 51.4996 98.5998 51.1996 98.8998 C 51.0996 98.9998 50.8996 98.9998 50.7996 98.8998 L 50.6996 98.7998 L 49.0996 94.5998 L 48.3996 94.5998 C 48.0996 94.5998 47.7996 94.3998 47.6996 93.9998 C 47.6996 92.8998 47.3996 91.8998 46.8996 90.8998 C 46.7996 90.6998 46.8996 90.4998 47.0996 90.3998 L 47.1996 90.3998 C 48.4996 90.3998 51.2996 90.2998 51.8996 90.3998 L 56.7996 90.3998 C 57.2996 89.5998 57.9996 89.0998 58.7996 88.7998 L 58.7996 85.4998 C 52.8996 84.7998 52.1996 79.3998 52.2996 76.1998 C 52.2996 74.8998 53.3996 73.7998 54.6996 73.7998 L 65.6996 73.7998 C 66.9996 73.7998 68.0996 74.7998 68.0996 76.1998 C 68.1996 79.3998 67.4996 84.6998 61.5996 85.4998 L 61.5996 88.7998 C 62.3996 89.0998 63.1996 89.6998 63.5996 90.3998 L 68.4996 90.3998 C 69.0996 90.3998 71.8996 90.3998 73.1996 90.3998 C 73.3996 90.3998 73.5996 90.5998 73.5996 90.7998 C 73.8996 90.8998 73.8996 90.8998 73.8996 90.9998 Z" stroke-linecap="round" />
</g>
		<g transform="matrix(1 0 0 1 -132.85 26.59)"  >
<path style="stroke: none; stroke-width: 1; stroke-dasharray: none; stroke-linecap: butt; stroke-dashoffset: 0; stroke-linejoin: miter; stroke-miterlimit: 4; fill: rgb(255,255,255); fill-rule: nonzero; opacity: 1;" vector-effect="non-scaling-stroke"  transform=" translate(-60.6, -87.19)" d="M 73.8998 90.9999 C 73.3998 91.9999 73.0998 92.9999 73.0998 94.0999 C 73.0998 94.3999 72.7998 94.6999 72.3998 94.6999 L 71.6998 94.6999 L 70.0998 98.8999 C 70.0998 98.9999 69.8998 99.0999 69.7998 99.0999 C 69.6998 99.0999 69.6998 99.0999 69.5998 98.9999 C 69.2998 98.5999 68.9998 98.2999 68.7998 97.8999 C 68.6998 97.7999 68.6998 97.6999 68.6998 97.5999 L 68.6998 92.7999 C 65.9998 93.1999 63.1998 93.3999 60.4998 93.3999 L 60.2998 93.3999 C 57.5998 93.3999 54.7998 93.1999 52.0998 92.7999 L 52.0998 97.5999 C 52.0998 97.6999 52.0998 97.7999 51.9998 97.8999 C 51.7998 98.2999 51.4998 98.6999 51.1998 98.9999 C 51.0998 99.0999 50.8998 99.0999 50.7998 98.9999 L 50.6998 98.8999 L 49.0998 94.6999 L 48.3998 94.6999 C 48.0998 94.6999 47.7998 94.4999 47.6998 94.0999 C 47.6998 92.9999 47.3998 91.9999 46.8998 90.9999 C 46.7998 90.7999 46.8998 90.5999 47.0998 90.4999 L 47.1998 90.4999 C 48.4998 90.4999 51.2998 90.3999 51.8998 90.3999 L 56.7998 90.3999 C 57.2998 89.5999 57.9998 89.0999 58.7998 88.7999 L 58.7998 85.4999 C 52.8998 84.7999 52.1998 79.3999 52.2998 76.1999 C 52.2998 74.8999 53.3998 73.7999 54.6998 73.7999 L 65.6998 73.7999 C 66.9998 73.7999 68.0998 74.7999 68.0998 76.1999 C 68.1998 79.3999 67.4998 84.6999 61.5998 85.4999 L 61.5998 88.7999 C 62.3998 89.0999 63.1998 89.6999 63.5998 90.3999 L 68.4998 90.3999 C 69.0998 90.3999 71.8998 90.3999 73.1998 90.4999 C 73.3998 90.4999 73.5998 90.6999 73.5998 90.8999 C 73.8998 90.8999 73.8998 90.8999 73.8998 90.9999 Z M 66.2998 95.9999 C 66.2998 96.6999 65.8998 97.2999 65.1998 97.4999 C 65.0998 97.4999 64.9998 97.4999 64.8998 97.4999 C 63.9998 97.4999 63.9998 96.3999 62.9998 96.3999 C 62.0998 96.3999 61.8998 99.0999 60.4998 99.1999 C 60.4998 99.1999 60.4998 99.1999 60.3998 99.1999 C 59.0998 98.9999 58.8998 96.3999 57.9998 96.3999 C 57.0998 96.3999 56.9998 97.4999 56.0998 97.4999 C 55.9998 97.4999 55.8998 97.4999 55.7998 97.4999 C 55.0998 97.2999 54.6998 96.6999 54.6998 95.9999 L 54.6998 95.1999 L 66.2998 95.1999 L 66.2998 95.9999 Z M 108.4 73.2999 C 104.2 71.8999 89.2998 67.9999 79.0998 79.7999 C 77.6998 74.5999 74.1998 70.1999 69.4998 67.6999 C 66.6998 66.3999 63.5998 65.6999 60.4998 65.6999 C 51.7998 65.3999 43.9998 71.2999 41.8998 79.7999 C 31.7998 68.1999 17.2998 71.6999 12.7998 73.1999 C 12.9998 76.9999 14.2998 80.6999 16.5998 83.7999 C 29.5998 101.9 47.9998 108.5 60.4998 108.7 L 60.6998 108.7 L 60.7998 108.7 C 60.8998 108.7 60.9998 108.7 61.0998 108.7 C 65.0998 108.6 68.9998 108 72.7998 106.9 C 85.7998 103.1 97.1998 94.8999 105 83.7999 C 106.9 80.7999 108.2 77.0999 108.4 73.2999 Z" stroke-linecap="round" />
</g>
		<g transform="matrix(1 0 0 1 -132.95 36.6)"  >
<path style="stroke: none; stroke-width: 1; stroke-dasharray: none; stroke-linecap: butt; stroke-dashoffset: 0; stroke-linejoin: miter; stroke-miterlimit: 4; fill: rgb(34,38,63); fill-rule: nonzero; opacity: 1;" vector-effect="non-scaling-stroke"  transform=" translate(-60.5, -97.2)" d="M 66.3002 95.2002 L 66.3002 96.0002 C 66.3002 96.7002 65.9002 97.3002 65.2002 97.5002 C 65.1002 97.5002 65.0002 97.5002 64.9002 97.5002 C 64.0002 97.5002 64.0002 96.4002 63.0002 96.4002 C 62.0002 96.4002 61.9002 99.1002 60.5002 99.2002 C 60.5002 99.2002 60.5002 99.2002 60.4002 99.2002 C 59.1002 99.0002 58.9002 96.4002 58.0002 96.4002 C 57.1002 96.4002 57.0002 97.5002 56.1002 97.5002 C 56.0002 97.5002 55.9002 97.5002 55.8002 97.5002 C 55.1002 97.3002 54.7002 96.7002 54.7002 96.0002 L 54.7002 95.2002 L 66.3002 95.2002 Z" stroke-linecap="round" />
</g>
		<g transform="matrix(1 0 0 1 -113.61 -4.04)"  >
<path style="stroke: none; stroke-width: 1; stroke-dasharray: none; stroke-linecap: butt; stroke-dashoffset: 0; stroke-linejoin: miter; stroke-miterlimit: 4; fill: rgb(34,38,63); fill-rule: nonzero; opacity: 1;" vector-effect="non-scaling-stroke"  transform=" translate(-79.84, -56.56)" d="M 89.0003 55.7998 L 88.5003 51.5998 C 88.5003 50.8998 87.9003 50.2998 87.2003 50.2998 C 87.0003 50.2998 86.9003 50.2998 86.7003 50.3998 C 82.2003 52.0998 69.3003 57.9998 70.8003 61.7998 C 72.1003 64.3998 82.6003 61.5998 87.8003 57.9998 C 88.6003 57.5998 89.0003 56.6998 89.0003 55.7998 Z" stroke-linecap="round" />
</g>
		<g transform="matrix(1 0 0 1 -152.04 -4.04)"  >
<path style="stroke: none; stroke-width: 1; stroke-dasharray: none; stroke-linecap: butt; stroke-dashoffset: 0; stroke-linejoin: miter; stroke-miterlimit: 4; fill: rgb(34,38,63); fill-rule: nonzero; opacity: 1;" vector-effect="non-scaling-stroke"  transform=" translate(-41.41, -56.56)" d="M 32.2998 55.7998 L 32.7998 51.5998 C 32.7998 50.8998 33.3998 50.2998 34.0998 50.2998 C 34.2998 50.2998 34.3998 50.2998 34.4998 50.3998 C 38.9998 52.0998 51.8998 57.9998 50.3998 61.7998 C 49.0998 64.3998 38.5998 61.5998 33.3998 57.9998 C 32.6998 57.5998 32.2998 56.6998 32.2998 55.7998 Z" stroke-linecap="round" />
</g>
		<g transform="matrix(1 0 0 1 -147.53 -15.89)"  >
<path style="stroke: none; stroke-width: 1; stroke-dasharray: none; stroke-linecap: butt; stroke-dashoffset: 0; stroke-linejoin: miter; stroke-miterlimit: 4; fill: rgb(255,255,255); fill-rule: nonzero; opacity: 1;" vector-effect="non-scaling-stroke"  transform=" translate(-45.92, -44.71)" d="M 49.5999 49.0998 C 46.9999 48.8998 41.6999 48.3998 39.9999 47.2998 C 37.7999 45.8998 38.6999 39.4998 46.6999 40.3998 C 52.7999 41.0998 53.5999 45.2998 52.3999 47.6998 C 51.7999 48.6998 50.6999 49.1998 49.5999 49.0998 Z" stroke-linecap="round" />
</g>
		<g transform="matrix(1 0 0 1 -118.07 -15.89)"  >
<path style="stroke: none; stroke-width: 1; stroke-dasharray: none; stroke-linecap: butt; stroke-dashoffset: 0; stroke-linejoin: miter; stroke-miterlimit: 4; fill: rgb(255,255,255); fill-rule: nonzero; opacity: 1;" vector-effect="non-scaling-stroke"  transform=" translate(-75.38, -44.71)" d="M 71.7002 49.0998 C 74.3002 48.8998 79.6002 48.3998 81.3002 47.2998 C 83.5002 45.8998 82.6002 39.4998 74.6002 40.3998 C 68.5002 41.0998 67.7002 45.2998 68.9002 47.6998 C 69.4002 48.6998 70.6002 49.1998 71.7002 49.0998 Z" stroke-linecap="round" />
</g>
		<g transform="matrix(1 0 0 1 -25.65 -0.5)"  >
<path style="stroke: none; stroke-width: 1; stroke-dasharray: none; stroke-linecap: butt; stroke-dashoffset: 0; stroke-linejoin: miter; stroke-miterlimit: 4; fill: rgb(255,255,255); fill-rule: nonzero; opacity: 1;" vector-effect="non-scaling-stroke"  transform=" translate(-167.8, -60.1)" d="M 145.3 80.2 L 151.7 71.2 C 156.3 74.8 161.9 76.7 168 76.7 C 174.2 76.7 178.2 74.4 178.2 70.8 C 178.2 67.4 174.9 65.6 167.5 64.8 C 153.1 63.2 146.7 58.3 146.7 48.8 C 146.7 39.1 155.4 32.5 168.3 32.5 C 175.7 32.5 182.9 34.7 188.3 38.5 L 182.5 47.2 C 178.5 44.4 173.8 42.9 168.9 42.9 C 162.8 42.9 158.8 45.1 158.8 48.5 C 158.8 51.8 161.7 53.5 169.1 54.4 C 183.4 56.1 190.3 61.5 190.3 71 C 190.3 81 181.3 87.7 168.1 87.7 C 159.5 87.6 151.2 84.9 145.3 80.2 Z" stroke-linecap="round" />
</g>
		<g transform="matrix(1 0 0 1 21.9 -0.55)"  >
<path style="stroke: none; stroke-width: 1; stroke-dasharray: none; stroke-linecap: butt; stroke-dashoffset: 0; stroke-linejoin: miter; stroke-miterlimit: 4; fill: rgb(255,255,255); fill-rule: nonzero; opacity: 1;" vector-effect="non-scaling-stroke"  transform=" translate(-215.35, -60.05)" d="M 234.4 65.4002 L 234.4 86.4002 L 222.6 86.4002 L 222.6 66.1002 C 222.6 61.3002 220.1 58.4002 215.9 58.4002 C 211.2 58.4002 208.1 61.8002 208.1 66.8002 L 208.1 86.4002 L 196.3 86.4002 L 196.3 33.7002 L 208.1 33.7002 L 208.1 53.3002 C 210.9 50.1002 214.7 48.4002 219.5 48.4002 C 228.7 48.4002 234.4 55.0002 234.4 65.4002 Z" stroke-linecap="round" />
</g>
		<g transform="matrix(1 0 0 1 54.75 -1.1)"  >
<path style="stroke: none; stroke-width: 1; stroke-dasharray: none; stroke-linecap: butt; stroke-dashoffset: 0; stroke-linejoin: miter; stroke-miterlimit: 4; fill: rgb(255,255,255); fill-rule: nonzero; opacity: 1;" vector-effect="non-scaling-stroke"  transform=" translate(-248.2, -59.5)" d="M 241.3 39.1001 C 241.3 35.3001 244.2 32.6001 248.2 32.6001 C 252.2 32.6001 255.1 35.3001 255.1 39.1001 C 255.1 42.9001 252.2 45.5001 248.2 45.5001 C 244.2 45.5001 241.3 42.9001 241.3 39.1001 Z M 242.3 49.2001 L 254.1 49.2001 L 254.1 86.4001 L 242.3 86.4001 L 242.3 49.2001 Z" stroke-linecap="round" />
</g>
		<g transform="matrix(1 0 0 1 89.6 -0.15)"  >
<path style="stroke: none; stroke-width: 1; stroke-dasharray: none; stroke-linecap: butt; stroke-dashoffset: 0; stroke-linejoin: miter; stroke-miterlimit: 4; fill: rgb(255,255,255); fill-rule: nonzero; opacity: 1;" vector-effect="non-scaling-stroke"  transform=" translate(-283.05, -60.45)" d="M 303.6 67.8002 C 303.6 79.2002 296.2 87.2002 285.8 87.2002 C 280.8 87.2002 276.5 85.4002 273.5 82.0002 L 272.7 86.4002 L 262.5 86.4002 L 262.5 33.7002 L 274.3 33.7002 L 274.3 52.8002 C 277.3 50.0002 281.2 48.5002 285.8 48.5002 C 296.2 48.5002 303.6 56.4002 303.6 67.8002 Z M 282.9 77.2002 C 288.2 77.2002 291.8 73.4002 291.8 67.8002 C 291.8 62.2002 288.2 58.4002 282.9 58.4002 C 277.7 58.4002 274.1 62.2002 274.1 67.8002 C 274.1 73.4002 277.7 77.2002 282.9 77.2002 Z" stroke-linecap="round" />
</g>
		<g transform="matrix(1 0 0 1 120.7 20.2)"  >
<path style="stroke: none; stroke-width: 1; stroke-dasharray: none; stroke-linecap: butt; stroke-dashoffset: 0; stroke-linejoin: miter; stroke-miterlimit: 4; fill: rgb(255,255,255); fill-rule: nonzero; opacity: 1;" vector-effect="non-scaling-stroke"  transform=" translate(-314.15, -80.8)" d="M 307.3 80.7999 C 307.3 76.9999 310.2 74.3999 314.2 74.3999 C 318.1 74.3999 321 76.9999 321 80.7999 C 321 84.4999 318.1 87.1999 314.2 87.1999 C 310.2 87.1999 307.3 84.4999 307.3 80.7999 Z" stroke-linecap="round" />
</g>
		<g transform="matrix(1 0 0 1 140.45 -1.1)"  >
<path style="stroke: none; stroke-width: 1; stroke-dasharray: none; stroke-linecap: butt; stroke-dashoffset: 0; stroke-linejoin: miter; stroke-miterlimit: 4; fill: rgb(255,255,255); fill-rule: nonzero; opacity: 1;" vector-effect="non-scaling-stroke"  transform=" translate(-333.9, -59.5)" d="M 327 39.1001 C 327 35.3001 329.9 32.6001 333.9 32.6001 C 337.9 32.6001 340.8 35.3001 340.8 39.1001 C 340.8 42.9001 337.9 45.5001 333.9 45.5001 C 329.9 45.5001 327 42.9001 327 39.1001 Z M 328 49.2001 L 339.8 49.2001 L 339.8 86.4001 L 328 86.4001 L 328 49.2001 Z" stroke-linecap="round" />
</g>
		<g transform="matrix(1 0 0 1 173 7.2)"  >
<path style="stroke: none; stroke-width: 1; stroke-dasharray: none; stroke-linecap: butt; stroke-dashoffset: 0; stroke-linejoin: miter; stroke-miterlimit: 4; fill: rgb(255,255,255); fill-rule: nonzero; opacity: 1;" vector-effect="non-scaling-stroke"  transform=" translate(-366.45, -67.8)" d="M 346 67.7999 C 346 56.1999 353.9 48.3999 366.4 48.3999 C 379 48.3999 386.9 56.1999 386.9 67.7999 C 386.9 79.3999 379 87.1999 366.4 87.1999 C 353.9 87.2999 346 79.3999 346 67.7999 Z M 366.4 77.1999 C 371.7 77.1999 375.1 73.1999 375.1 67.7999 C 375.1 62.3999 371.6 58.3999 366.4 58.3999 C 361.2 58.3999 357.7 62.3999 357.7 67.7999 C 357.7 73.1999 361.2 77.1999 366.4 77.1999 Z" stroke-linecap="round" />
</g>
</g>
</g>
</svg>