<svg width="25" height="25" viewBox="0 0 25 25" fill="none" xmlns="http://www.w3.org/2000/svg">
<g id="arrow_forward_FILL0_wght400_GRAD0_opsz24 1">
<path id="Vector" d="M11.8 19.7998C11.6167 19.6165 11.5208 19.3831 11.5125 19.0998C11.5042 18.8165 11.5917 18.5831 11.775 18.3998L16.675 13.4998H5.5C5.21667 13.4998 4.97917 13.404 4.7875 13.2123C4.59583 13.0206 4.5 12.7831 4.5 12.4998C4.5 12.2165 4.59583 11.979 4.7875 11.7873C4.97917 11.5956 5.21667 11.4998 5.5 11.4998H16.675L11.775 6.5998C11.5917 6.41647 11.5042 6.18314 11.5125 5.8998C11.5208 5.61647 11.6167 5.38314 11.8 5.1998C11.9833 5.01647 12.2167 4.9248 12.5 4.9248C12.7833 4.9248 13.0167 5.01647 13.2 5.1998L19.8 11.7998C19.9 11.8831 19.9708 11.9873 20.0125 12.1123C20.0542 12.2373 20.075 12.3665 20.075 12.4998C20.075 12.6331 20.0542 12.7581 20.0125 12.8748C19.9708 12.9915 19.9 13.0998 19.8 13.1998L13.2 19.7998C13.0167 19.9831 12.7833 20.0748 12.5 20.0748C12.2167 20.0748 11.9833 19.9831 11.8 19.7998Z" fill="white"/>
</g>
</svg>
