<svg width="25" height="24" viewBox="0 0 25 24" fill="none" xmlns="http://www.w3.org/2000/svg">
<g id="menu_book_FILL0_wght400_GRAD0_opsz24 1">
<path id="Vector" d="M14.4951 8.775C14.4951 8.625 14.5493 8.47083 14.6576 8.3125C14.766 8.15417 14.8868 8.05 15.0201 8C15.5035 7.83333 15.9868 7.70833 16.4701 7.625C16.9535 7.54167 17.4618 7.5 17.9951 7.5C18.3285 7.5 18.6576 7.52083 18.9826 7.5625C19.3076 7.60417 19.6285 7.65833 19.9451 7.725C20.0951 7.75833 20.2243 7.84167 20.3326 7.975C20.441 8.10833 20.4951 8.25833 20.4951 8.425C20.4951 8.70833 20.4035 8.91667 20.2201 9.05C20.0368 9.18333 19.8035 9.21667 19.5201 9.15C19.2868 9.1 19.041 9.0625 18.7826 9.0375C18.5243 9.0125 18.2618 9 17.9951 9C17.5618 9 17.1368 9.04167 16.7201 9.125C16.3035 9.20833 15.9035 9.31667 15.5201 9.45C15.2201 9.56667 14.9743 9.55833 14.7826 9.425C14.591 9.29167 14.4951 9.075 14.4951 8.775ZM14.4951 14.275C14.4951 14.125 14.5493 13.9708 14.6576 13.8125C14.766 13.6542 14.8868 13.55 15.0201 13.5C15.5035 13.3333 15.9868 13.2083 16.4701 13.125C16.9535 13.0417 17.4618 13 17.9951 13C18.3285 13 18.6576 13.0208 18.9826 13.0625C19.3076 13.1042 19.6285 13.1583 19.9451 13.225C20.0951 13.2583 20.2243 13.3417 20.3326 13.475C20.441 13.6083 20.4951 13.7583 20.4951 13.925C20.4951 14.2083 20.4035 14.4167 20.2201 14.55C20.0368 14.6833 19.8035 14.7167 19.5201 14.65C19.2868 14.6 19.041 14.5625 18.7826 14.5375C18.5243 14.5125 18.2618 14.5 17.9951 14.5C17.5618 14.5 17.1368 14.5375 16.7201 14.6125C16.3035 14.6875 15.9035 14.7917 15.5201 14.925C15.2201 15.0417 14.9743 15.0375 14.7826 14.9125C14.591 14.7875 14.4951 14.575 14.4951 14.275ZM14.4951 11.525C14.4951 11.375 14.5493 11.2208 14.6576 11.0625C14.766 10.9042 14.8868 10.8 15.0201 10.75C15.5035 10.5833 15.9868 10.4583 16.4701 10.375C16.9535 10.2917 17.4618 10.25 17.9951 10.25C18.3285 10.25 18.6576 10.2708 18.9826 10.3125C19.3076 10.3542 19.6285 10.4083 19.9451 10.475C20.0951 10.5083 20.2243 10.5917 20.3326 10.725C20.441 10.8583 20.4951 11.0083 20.4951 11.175C20.4951 11.4583 20.4035 11.6667 20.2201 11.8C20.0368 11.9333 19.8035 11.9667 19.5201 11.9C19.2868 11.85 19.041 11.8125 18.7826 11.7875C18.5243 11.7625 18.2618 11.75 17.9951 11.75C17.5618 11.75 17.1368 11.7917 16.7201 11.875C16.3035 11.9583 15.9035 12.0667 15.5201 12.2C15.2201 12.3167 14.9743 12.3083 14.7826 12.175C14.591 12.0417 14.4951 11.825 14.4951 11.525ZM6.99512 16C7.77845 16 8.54095 16.0875 9.28262 16.2625C10.0243 16.4375 10.7618 16.7 11.4951 17.05V7.2C10.8118 6.8 10.0868 6.5 9.32012 6.3C8.55345 6.1 7.77845 6 6.99512 6C6.39512 6 5.79928 6.05833 5.20762 6.175C4.61595 6.29167 4.04512 6.46667 3.49512 6.7V16.6C4.07845 16.4 4.65762 16.25 5.23262 16.15C5.80762 16.05 6.39512 16 6.99512 16ZM13.4951 17.05C14.2285 16.7 14.966 16.4375 15.7076 16.2625C16.4493 16.0875 17.2118 16 17.9951 16C18.5951 16 19.1826 16.05 19.7576 16.15C20.3326 16.25 20.9118 16.4 21.4951 16.6V6.7C20.9451 6.46667 20.3743 6.29167 19.7826 6.175C19.191 6.05833 18.5951 6 17.9951 6C17.2118 6 16.4368 6.1 15.6701 6.3C14.9035 6.5 14.1785 6.8 13.4951 7.2V17.05ZM12.4951 19.475C12.2618 19.475 12.041 19.4458 11.8326 19.3875C11.6243 19.3292 11.4285 19.25 11.2451 19.15C10.5951 18.7667 9.91178 18.4792 9.19512 18.2875C8.47845 18.0958 7.74512 18 6.99512 18C6.29512 18 5.60762 18.0917 4.93262 18.275C4.25762 18.4583 3.61178 18.7167 2.99512 19.05C2.64512 19.2333 2.30762 19.225 1.98262 19.025C1.65762 18.825 1.49512 18.5333 1.49512 18.15V6.1C1.49512 5.91667 1.54095 5.74167 1.63262 5.575C1.72428 5.40833 1.86178 5.28333 2.04512 5.2C2.81178 4.8 3.61178 4.5 4.44512 4.3C5.27845 4.1 6.12845 4 6.99512 4C7.96178 4 8.90762 4.125 9.83262 4.375C10.7576 4.625 11.6451 5 12.4951 5.5C13.3451 5 14.2326 4.625 15.1576 4.375C16.0826 4.125 17.0285 4 17.9951 4C18.8618 4 19.7118 4.1 20.5451 4.3C21.3785 4.5 22.1785 4.8 22.9451 5.2C23.1285 5.28333 23.266 5.40833 23.3576 5.575C23.4493 5.74167 23.4951 5.91667 23.4951 6.1V18.15C23.4951 18.5333 23.3326 18.825 23.0076 19.025C22.6826 19.225 22.3451 19.2333 21.9951 19.05C21.3785 18.7167 20.7326 18.4583 20.0576 18.275C19.3826 18.0917 18.6951 18 17.9951 18C17.2451 18 16.5118 18.0958 15.7951 18.2875C15.0785 18.4792 14.3951 18.7667 13.7451 19.15C13.5618 19.25 13.366 19.3292 13.1576 19.3875C12.9493 19.4458 12.7285 19.475 12.4951 19.475Z" fill="white"/>
</g>
</svg>
