<svg width="476" height="150" viewBox="0 0 476 150" fill="none" xmlns="http://www.w3.org/2000/svg">
<g clip-path="url(#clip0_254_432)">
<path fill-rule="evenodd" clip-rule="evenodd" d="M292.186 91.6946C284.458 91.6946 279.657 87.2127 279.657 79.9939C279.657 72.4925 284.087 67.8316 291.22 67.8316L291.823 67.8281C292.714 67.8281 293.947 67.8563 295.63 68.0703V59.0198H300.676V90.8807C300.676 90.8807 295.884 91.6946 292.186 91.6946ZM292.142 71.8057C287.259 71.8057 284.885 74.4436 284.885 79.8689C284.885 84.7372 287.747 87.7609 292.352 87.7609C293.236 87.7609 294.25 87.7059 295.63 87.5843V72.1279C294.248 71.9084 293.14 71.8057 292.142 71.8057Z" fill="#E7E7E7"/>
<path fill-rule="evenodd" clip-rule="evenodd" d="M223.14 90.968L209.522 67.1758L209.518 90.968H204.773V60.8521H211.415L225.033 84.4314L225.027 60.8521H229.833V90.968H223.14Z" fill="#E7E7E7"/>
<path fill-rule="evenodd" clip-rule="evenodd" d="M266.512 91.4296C264.22 91.4296 261.828 91.173 258.98 90.6247L258.678 90.565V86.3579L259.129 86.4568C261.635 86.9906 263.803 87.452 265.968 87.452C267.721 87.452 271.799 87.1728 271.799 84.5947C271.799 82.4297 268.981 81.8883 266.716 81.4548L266.574 81.4267C266.153 81.3435 265.755 81.2645 265.414 81.179C262.094 80.3154 258.553 79.0207 258.553 74.5659C258.553 70.2224 261.989 67.7311 267.978 67.7311C270.852 67.7311 272.939 68.0417 274.615 68.2917L275.435 68.4144V72.492L274.998 72.4167C273.1 72.0664 270.877 71.7074 268.734 71.7074C266.36 71.7074 263.532 72.1522 263.532 74.2721C263.532 76.0283 265.843 76.5315 268.519 77.1137C272.259 77.9286 276.901 78.943 276.901 84.0509C276.901 88.7399 273.114 91.4296 266.512 91.4296Z" fill="#E7E7E7"/>
<path fill-rule="evenodd" clip-rule="evenodd" d="M314.827 91.4296C309.604 91.4296 304.772 90.511 304.772 83.8416C304.772 76.5844 312.246 76.5844 316.712 76.5844C317.158 76.5844 319.257 76.6802 319.904 76.7094C319.898 72.6384 319.843 71.6669 313.945 71.6669C311.607 71.6669 309.009 72.1319 306.717 72.5415L306.28 72.6205V68.5989L306.579 68.5381C309.234 67.9956 311.795 67.7311 314.406 67.7311C320.123 67.7311 324.967 68.3086 324.967 75.4057V90.8882L324.618 90.924C320.659 91.3688 317.514 91.4296 314.827 91.4296ZM316.585 80.1735C312.28 80.1735 309.612 80.8076 309.612 83.9653C309.612 87.6187 313.018 87.9237 316.209 87.9237C317.405 87.9237 319.55 87.7718 320.205 87.7223V80.2975C319.28 80.2625 316.876 80.1735 316.585 80.1735Z" fill="#E7E7E7"/>
<path fill-rule="evenodd" clip-rule="evenodd" d="M244.093 91.4296C238.87 91.4296 234.038 90.511 234.038 83.8416C234.038 76.5844 241.511 76.5844 245.978 76.5844C246.423 76.5844 248.522 76.6802 249.169 76.7094C249.164 72.6384 249.109 71.6669 243.211 71.6669C240.873 71.6669 238.276 72.1319 235.982 72.5415L235.545 72.6205V68.5989L235.844 68.5381C238.501 67.9956 241.06 67.7311 243.672 67.7311C249.389 67.7311 254.232 68.3086 254.232 75.4057V90.8882L253.884 90.924C249.925 91.3688 246.779 91.4296 244.093 91.4296ZM245.85 80.1735C241.545 80.1735 238.877 80.8076 238.877 83.9653C238.877 87.6187 242.283 87.9237 245.475 87.9237C246.67 87.9237 248.815 87.7718 249.471 87.7223V80.2975C248.545 80.2625 246.142 80.1735 245.85 80.1735Z" fill="#E7E7E7"/>
<path fill-rule="evenodd" clip-rule="evenodd" d="M345.042 101.197V91.3202C343.072 91.5971 342.025 91.5971 341.181 91.5971C339.186 91.5971 336.969 91.1626 335.249 90.433C331.408 88.8366 329.115 84.7724 329.115 79.5598C329.115 76.9535 329.748 72.197 333.987 69.6334C336.109 68.3613 338.624 67.8175 342.397 67.8175C343.751 67.8175 345.576 67.9223 347.338 68.0247L350.201 68.1721V98.9106L345.042 101.197ZM342.019 71.7928C336.9 71.7928 334.302 74.4059 334.302 79.5598C334.302 86.1887 338.179 87.5803 341.433 87.5803C342.224 87.5803 343.117 87.5803 345.089 87.3313V71.9357C343.544 71.8309 342.835 71.7928 342.019 71.7928Z" fill="#E7E7E7"/>
<path fill-rule="evenodd" clip-rule="evenodd" d="M182.252 43L165.576 88.8583C165.167 89.9899 164.133 90.8161 162.894 90.9411V90.9682H180.52C181.902 90.9682 183.083 90.0889 183.526 88.8583L200.202 43H182.252ZM161.46 90.2676C162.478 90.2676 163.376 89.7633 163.925 88.9932C163.982 88.9132 164.182 88.6318 164.321 88.2478L170.439 71.4213L166.861 61.5951C166.404 60.5041 165.326 59.7374 164.07 59.7374C163.053 59.7374 162.154 60.2407 161.605 61.0119C161.548 61.0907 161.31 61.4498 161.208 61.7572L155.094 78.577L158.686 88.4426C159.151 89.5156 160.216 90.2676 161.46 90.2676ZM144.948 59.0342H162.766V59.0443C161.443 59.0995 160.321 59.9517 159.892 61.1428L143.217 107H125.267L141.941 61.1428C142.386 59.9123 143.565 59.0342 144.948 59.0342Z" fill="#E7E7E7"/>
</g>
<defs>
<clipPath id="clip0_254_432">
<rect width="227" height="64" fill="white" transform="translate(125 43)"/>
</clipPath>
</defs>
</svg>
