<svg width="476" height="150" viewBox="0 0 476 150" fill="none" xmlns="http://www.w3.org/2000/svg">
<g clip-path="url(#clip0_254_437)">
<path d="M139.369 46.188H112.238C111.021 46.188 110 47.1779 110 48.4054V52.8799C110 54.1074 111.021 55.0973 112.238 55.0973H118.874C119.62 55.0973 120.209 55.7309 120.209 56.4832V100.594C120.209 101.862 121.19 102.851 122.447 102.851H129.161C130.378 102.851 131.359 101.862 131.399 100.594V56.4832C131.399 55.7705 131.988 55.1369 132.734 55.1369H139.448C140.665 55.1369 141.686 54.147 141.686 52.8799V48.4054C141.607 47.2571 140.626 46.2276 139.369 46.188Z" fill="#E7E7E7"/>
<path d="M170.387 66.5409C169.131 62.8583 165.911 60.7201 162.103 60.7201C159.433 60.7201 156.881 61.7496 154.878 63.6107C154.761 63.7295 154.603 63.8482 154.446 63.8878C154.407 63.7691 154.368 63.5711 154.368 63.4523L154.329 48.4846C154.329 47.2571 153.347 46.2275 152.091 46.2275H146.515C145.298 46.2275 144.316 47.2175 144.316 48.4846V100.634C144.316 101.861 145.298 102.851 146.515 102.891H152.287C153.504 102.891 154.486 101.901 154.525 100.634V73.1536C154.486 72.5992 154.525 72.124 154.643 71.6093C154.957 70.1838 156.253 69.1147 157.745 69.1543C158.844 69.1147 159.943 69.7086 160.493 70.6985C160.768 71.3717 160.768 72.0053 160.768 73.6683V100.594C160.768 101.822 161.749 102.851 163.006 102.851H168.778C169.995 102.851 171.016 101.861 171.016 100.594V70.6985C171.016 69.3522 170.78 67.9268 170.387 66.5409Z" fill="#E7E7E7"/>
<path d="M185.269 84.7556H197.637C198.893 84.7556 199.875 83.7656 199.875 82.4985V72.7576C199.875 69.6295 199.482 68.2436 198.775 66.8181C197.519 64.2443 193.75 60.7993 187.075 60.7993C182.285 60.7993 176.906 62.5416 174.825 67.5308C174.157 69.3523 173.804 71.2134 173.804 73.1536V90.22C173.843 92.0414 174.079 93.8629 174.51 95.6448C175.61 99.4065 178.594 103.683 186.918 103.683H186.996C192.375 103.683 197.676 102.059 199.286 96.1199C199.639 94.8924 199.796 93.6253 199.678 92.3582V90.7347C199.639 89.5468 198.658 88.5965 197.44 88.6757H192.022C190.805 88.7153 189.823 89.6656 189.784 90.9327C189.784 91.8434 189.705 92.675 189.509 93.5461C189.234 94.734 188.174 95.526 186.957 95.4468C185.661 95.526 184.483 94.734 184.13 93.4669C183.894 92.8334 183.894 92.3582 183.894 90.9327V86.1019C183.973 85.2703 184.562 84.7556 185.269 84.7556ZM183.934 72.6388C183.894 71.8865 184.052 71.1342 184.326 70.4214C184.719 69.6691 185.347 69.0751 186.918 69.0355C188.292 69.0355 188.92 69.5899 189.274 70.263C189.548 70.9362 189.666 71.6093 189.666 72.3221V75.767C189.666 76.4798 189.077 77.1133 188.331 77.1133H185.229C184.523 77.1133 183.894 76.5194 183.894 75.767V72.6388H183.934Z" fill="#E7E7E7"/>
<path d="M232.581 76.9549C231.286 75.2522 229.715 73.7475 227.909 72.52L218.054 65.6697C217.308 65.2342 216.64 64.6402 216.051 63.9671C215.148 62.6999 215.031 60.3241 215.031 59.3342V58.8194C215.109 54.3054 216.915 53.7906 219.153 53.7114C222.805 53.751 223.119 55.7309 223.237 57.2751V61.1557C223.237 62.4228 224.218 63.4127 225.475 63.4127H232.11C233.367 63.4127 234.348 62.4228 234.348 61.1557V57.4731C234.427 55.81 234.152 54.1866 233.445 52.6423C230.343 44.9604 221.313 45 219.664 45C218.564 45 208.866 44.9208 205.568 52.0483C204.272 54.8201 204.194 58.3047 204.194 59.5718V59.8886C204.194 64.6798 205.018 66.9368 206.196 68.9563C207.61 71.2925 208.827 72.2428 210.947 73.7079L220.567 80.2415C221.431 80.7958 222.177 81.5086 222.805 82.3005C223.747 83.6468 223.826 85.5079 223.826 86.5374V87.171C223.826 91.0119 223.747 93.3085 222.491 94.2588C221.863 94.8528 220.959 95.2092 219.232 95.2092C218.211 95.2488 217.229 94.9716 216.326 94.4964C214.834 93.5461 214.717 91.883 214.717 90.0615V84.5575C214.717 83.33 213.735 82.3005 212.478 82.3005H205.961C204.744 82.3005 203.723 83.2904 203.723 84.5575V90.8931C203.644 92.9125 204.037 94.9716 204.901 96.7931C205.568 98.3769 206.589 99.7232 207.963 100.753C211.379 103.445 215.659 104 219.585 104C229.126 104.039 233.053 99.8024 234.348 95.1696C234.937 92.9521 234.937 91.0911 234.937 86.8146V84.9931C234.898 82.0629 234.702 79.7267 232.581 76.9549Z" fill="#E7E7E7"/>
<path d="M255.864 95.9219C255.746 95.5259 255.354 95.2091 254.922 95.1695C254.883 95.1695 254.843 95.1695 254.843 95.1695C254.608 95.2091 254.333 95.2091 254.137 95.2091C252.527 95.2091 250.996 94.932 250.564 93.3085C250.328 92.7145 250.328 92.4769 250.328 91.2494V69.9462C250.328 69.2334 250.917 68.5999 251.663 68.5999H253.626C254.843 68.5999 255.864 67.61 255.864 66.3824V63.769C255.864 62.5415 254.883 61.512 253.626 61.512H251.624C250.917 61.512 250.289 60.918 250.289 60.2053V52.3651C250.289 51.1376 249.307 50.108 248.051 50.108H242.318C241.101 50.108 240.08 51.098 240.08 52.3651V60.2053C240.08 60.918 239.491 61.5516 238.745 61.5516H237.332C236.115 61.5516 235.094 62.5415 235.094 63.8086V66.4616C235.094 67.6891 236.075 68.7187 237.332 68.7187H238.863C239.57 68.7187 240.198 69.3522 240.198 70.065V94.3776C240.198 95.9615 240.277 97.6642 241.023 99.2084C242.279 102.059 245.381 103.208 250.721 103.208H250.838C251.859 103.208 252.88 103.168 253.94 103.01C255.197 102.772 256.1 101.703 256.1 100.436V97.2682C256.139 96.8722 256.021 96.3971 255.864 95.9219Z" fill="#E7E7E7"/>
<path d="M278.716 62.9771C278.716 61.8684 277.813 60.9181 276.714 60.8389C276.635 60.8389 276.596 60.8389 276.478 60.8389C273.965 61.0764 271.688 62.3832 270.196 64.4422C269.96 64.7194 269.803 64.9966 269.607 65.3133V63.7295C269.607 62.5019 268.625 61.512 267.408 61.512H261.676C260.458 61.512 259.438 62.5019 259.438 63.7691V100.555C259.438 101.782 260.419 102.812 261.636 102.812H267.369C268.586 102.812 269.607 101.822 269.607 100.555V78.0636C269.607 75.4898 269.685 72.7972 271.923 71.2529C272.905 70.659 274.044 70.3422 275.182 70.3818C275.693 70.3818 276.164 70.4214 276.674 70.5006C276.792 70.5402 276.949 70.5402 277.067 70.5402C277.499 70.5402 277.931 70.3422 278.245 70.0254C278.559 69.669 278.755 69.1939 278.677 68.7583V62.9771H278.716Z" fill="#E7E7E7"/>
<path d="M291.673 84.7556H304.041C305.297 84.7556 306.279 83.726 306.279 82.4985V72.7576C306.279 69.6295 305.886 68.2436 305.18 66.8181C303.923 64.2443 300.154 60.7993 293.479 60.7993C288.689 60.7993 283.31 62.5416 281.268 67.5308C280.561 69.3523 280.208 71.2134 280.208 73.1536V90.22C280.247 92.0414 280.522 93.8629 280.915 95.6448C282.014 99.4065 285.037 103.723 293.401 103.683H293.479C298.819 103.683 304.08 102.02 305.69 96.1199C306.004 94.8924 306.122 93.6253 306.083 92.3582V90.7347C306.044 89.5468 305.062 88.5965 303.845 88.6757H298.426C297.209 88.6757 296.228 89.6656 296.188 90.9327C296.188 91.8434 296.11 92.675 295.913 93.5461C295.639 94.734 294.539 95.526 293.361 95.4468C292.105 95.526 290.927 94.734 290.574 93.5065C290.338 92.873 290.338 92.3978 290.338 90.9327V86.1019C290.377 85.2703 290.927 84.7556 291.673 84.7556ZM293.322 69.0751C294.736 69.0751 295.325 69.6295 295.678 70.3026C295.953 70.9758 296.11 71.6489 296.071 72.3617V75.8066C296.071 76.5194 295.442 77.1529 294.736 77.1529H291.634C290.927 77.1529 290.299 76.559 290.299 75.8462V72.6388C290.26 71.8865 290.417 71.1342 290.691 70.4214C291.123 69.7087 291.791 69.0751 293.322 69.0751Z" fill="#E7E7E7"/>
<path d="M320.453 84.7556H332.821C334.038 84.7556 335.059 83.7656 335.059 82.4985V72.7576C335.059 69.6295 334.667 68.2436 333.96 66.8181C332.703 64.2443 328.934 60.7993 322.259 60.7993C317.469 60.7993 312.09 62.5416 310.048 67.5308C309.381 69.3523 309.027 71.2134 309.027 73.1536V90.22C309.067 92.0414 309.341 93.8629 309.734 95.6448C310.833 99.4065 313.857 103.723 322.22 103.683H322.298C327.638 103.683 332.9 102.02 334.509 96.1199C334.824 94.8924 335.02 93.6253 334.902 92.3582V90.7347C334.863 89.5468 333.881 88.5965 332.664 88.6757H327.206C325.989 88.6757 325.008 89.6656 324.968 90.9327C324.968 91.8434 324.89 92.675 324.694 93.5461C324.419 94.734 323.359 95.526 322.141 95.4468C320.885 95.526 319.707 94.6944 319.354 93.4669C319.118 92.8334 319.118 92.3582 319.118 90.9327V86.1019C319.157 85.3495 319.707 84.7556 320.453 84.7556ZM322.102 69.0751C323.516 69.0751 324.105 69.6295 324.458 70.3026C324.772 70.9758 324.89 71.6489 324.851 72.3617C324.851 72.4409 324.851 72.5597 324.851 72.6388V75.8066C324.851 76.5194 324.222 77.1529 323.516 77.1529H320.453C319.746 77.1529 319.118 76.559 319.118 75.8066V72.5992C319.079 71.8469 319.236 71.0946 319.511 70.3818C319.903 69.7087 320.571 69.0751 322.102 69.0751Z" fill="#E7E7E7"/>
<path d="M356.615 95.9219C356.497 95.5259 356.104 95.2091 355.672 95.1695H355.594C355.358 95.2091 355.083 95.2091 354.887 95.2091C353.277 95.2091 351.746 94.932 351.314 93.3085C351.078 92.7145 351.078 92.4769 351.078 91.2494V69.9462C351.078 69.2334 351.667 68.5999 352.413 68.5999H354.416C355.633 68.5999 356.654 67.61 356.654 66.3429V63.7295C356.654 62.4623 355.672 61.4724 354.416 61.4724H352.413C351.707 61.4724 351.078 60.8785 351.078 60.1261V52.2463C351.078 51.0188 350.097 49.9893 348.84 49.9893H343.147C341.93 49.9893 340.909 50.9792 340.909 52.2463V60.0865C340.909 60.7993 340.32 61.4328 339.574 61.4328H338.2C336.944 61.4328 335.962 62.4227 335.962 63.6899V66.3033C335.962 67.5308 336.944 68.5603 338.2 68.5603H339.731C340.438 68.5603 341.066 69.1939 341.066 69.9066V94.2192C341.066 95.8031 341.145 97.5058 341.891 99.0501C343.186 101.901 346.249 103.049 351.589 103.049H351.667C352.688 103.049 353.709 103.01 354.769 102.851C356.026 102.614 356.929 101.545 356.929 100.278V97.1098C356.811 96.8722 356.772 96.3971 356.615 95.9219Z" fill="#E7E7E7"/>
<path d="M363.369 103.287C361.955 103.247 360.777 102.059 360.816 100.634C360.856 99.2085 362.034 98.0206 363.447 98.0602C364.861 98.0998 366.038 99.2877 365.999 100.713C365.96 102.099 364.821 103.287 363.447 103.287H363.369ZM363.369 98.2582C362.073 98.2582 361.013 99.2877 361.013 100.634C361.013 101.941 362.034 103.01 363.369 103.01C364.664 103.01 365.724 101.98 365.724 100.674C365.764 99.3669 364.782 98.2978 363.486 98.2186L363.369 98.2582ZM363.369 98.9313C363.643 98.9313 363.918 98.9709 364.193 99.0501C364.507 99.2877 364.625 99.6045 364.625 99.9608C364.625 100.357 364.389 100.713 364.036 100.872L364.625 102.257H363.879L363.447 100.99H363.015V102.257H362.348V98.9313H363.369ZM362.937 100.396H363.369C363.722 100.396 363.918 100.278 363.918 99.9608C363.918 99.6441 363.8 99.5649 363.408 99.5649H362.976V100.436H362.937V100.396Z" fill="#E7E7E7"/>
</g>
<defs>
<clipPath id="clip0_254_437">
<rect width="256" height="59" fill="white" transform="translate(110 45)"/>
</clipPath>
</defs>
</svg>
