<svg width="476" height="150" viewBox="0 0 476 150" fill="none" xmlns="http://www.w3.org/2000/svg">
<g clip-path="url(#clip0_254_350)">
<path d="M177.717 75C177.686 77.0259 177.321 79.0329 176.636 80.94C175.985 82.9256 174.875 84.7295 173.395 86.205C171.849 87.7947 170.016 89.0774 167.992 89.985C165.465 91.0191 162.753 91.5245 160.024 91.47H146.518C145.437 91.47 144.222 91.605 143.141 91.605C143.141 91.47 143.006 91.2 143.006 91.065V90.66C143.006 90.255 143.006 90.12 143.141 89.985C143.276 89.85 143.276 89.85 143.546 89.85C144.342 89.7447 145.116 89.517 145.842 89.175C146.134 89.0554 146.382 88.8484 146.551 88.5825C146.72 88.3166 146.803 88.0048 146.788 87.69V62.04C146.821 61.7545 146.776 61.4653 146.657 61.2036C146.538 60.9419 146.35 60.7177 146.113 60.555C145.304 60.1809 144.435 59.9524 143.546 59.88C143.141 59.88 143.141 59.745 143.006 59.61C142.948 59.3878 142.903 59.1624 142.871 58.935V58.53C142.871 58.26 142.871 58.125 143.006 57.99C143.681 57.99 144.222 58.125 145.032 58.125H159.889C162.457 58.1447 165.007 58.5544 167.452 59.34C169.468 60.2016 171.301 61.4386 172.854 62.985C174.33 64.4893 175.479 66.2816 176.231 68.25C177.209 70.3662 177.715 72.6691 177.717 75ZM170.693 76.08C170.692 73.7527 170.374 71.4365 169.748 69.195C169.263 67.4167 168.333 65.7909 167.047 64.47C165.857 63.2202 164.37 62.2914 162.725 61.77C160.802 61.1611 158.799 60.8425 156.782 60.825H153.541V86.88C153.519 87.201 153.565 87.5229 153.676 87.825L154.216 88.365C154.634 88.4588 155.041 88.5944 155.432 88.77C155.972 88.77 156.647 88.905 157.593 88.905C161.915 88.905 165.291 87.825 167.317 85.53C169.613 83.3295 170.693 80.0895 170.693 76.0395V76.08Z" fill="#E7E7E7"/>
<path d="M197.3 80.4H186.644L183.943 87.42C183.835 87.5784 183.787 87.7697 183.807 87.96V88.5C183.798 88.6926 183.844 88.8838 183.94 89.0512C184.035 89.2186 184.177 89.3552 184.348 89.445C185.023 89.7731 185.759 89.957 186.509 89.985C187.049 89.985 187.184 90.39 187.184 90.93C187.189 91.2501 187.143 91.5691 187.049 91.875C186.104 91.875 185.293 91.74 184.213 91.74H178.945C178.27 91.74 177.325 91.875 176.379 91.875C176.379 91.74 176.244 91.47 176.244 91.335V90.93C176.244 90.255 176.379 89.985 176.919 89.85C177.719 89.7652 178.497 89.5365 179.215 89.175C179.485 89.0832 179.727 88.923 179.916 88.71C180.105 88.4971 180.236 88.2386 180.296 87.96L192.586 58.935C192.992 58.395 193.262 57.99 193.802 57.99H194.882L207.308 88.23C207.372 88.4916 207.506 88.7307 207.697 88.9211C207.887 89.1115 208.127 89.246 208.388 89.31C208.929 89.445 209.604 89.715 210.144 89.85C210.684 89.985 210.819 90.255 210.819 90.93C210.841 91.251 210.795 91.5729 210.684 91.875C209.604 91.875 208.523 91.74 207.443 91.74H196.773C196.773 91.605 196.638 91.335 196.638 91.2V90.795C196.638 90.39 196.638 90.255 196.773 90.12L197.178 89.715C197.87 89.6051 198.549 89.4242 199.204 89.175C199.4 89.1058 199.57 88.9779 199.691 88.8089C199.812 88.6398 199.878 88.4377 199.88 88.23C199.88 88.095 199.88 87.69 199.745 87.555L197.3 80.4ZM196.219 77.97L191.898 66.495L187.441 77.97H196.219Z" fill="#E7E7E7"/>
<path d="M223.232 87.9195V88.8645C223.251 88.9805 223.298 89.0901 223.368 89.1842C223.439 89.2782 223.531 89.3538 223.637 89.4045C223.897 89.6438 224.23 89.7868 224.583 89.8095C225.134 89.8964 225.676 90.0319 226.203 90.2145C226.609 90.2145 226.744 90.6195 226.744 91.1595V92.2395C225.663 92.2395 224.583 92.1045 223.367 92.1045H216.884C215.669 92.1045 214.588 92.2395 213.508 92.2395C213.508 92.1045 213.373 91.8345 213.373 91.6995V91.2C213.373 90.66 213.508 90.255 213.913 90.255C214.473 90.2172 215.022 90.0801 215.534 89.85C215.939 89.58 216.209 89.715 216.479 89.445C216.749 89.175 216.884 89.04 216.884 88.905C216.949 88.5931 216.994 88.2775 217.019 87.96V62.4045C217.041 62.0835 216.995 61.7615 216.884 61.4595C216.865 61.3435 216.819 61.2338 216.748 61.1398C216.677 61.0457 216.585 60.9702 216.479 60.9195C216.22 60.6801 215.886 60.5372 215.534 60.5145C214.983 60.4275 214.44 60.292 213.913 60.1095C213.508 59.9745 213.373 59.7045 213.373 59.1645V58.6245C213.352 58.4342 213.4 58.2429 213.508 58.0845C214.588 58.0845 215.669 58.2195 216.884 58.2195H223.367C224.583 58.2195 225.663 58.0845 226.744 58.0845V59.1645C226.768 59.3593 226.729 59.5568 226.632 59.7273C226.534 59.8978 226.384 60.0319 226.203 60.1095C225.798 60.2445 225.258 60.2445 224.988 60.5145C224.718 60.7845 224.313 60.6495 224.042 60.9195C223.772 61.1895 223.637 61.3245 223.637 61.4595V62.4045L223.232 87.9195Z" fill="#E7E7E7"/>
<path d="M241.6 87.3795C241.6 88.0545 242.14 88.5945 243.085 88.8645C244.557 89.1262 246.048 89.2616 247.542 89.2695H249.568C250.314 89.3732 251.072 89.231 251.729 88.8645C252.338 88.6845 252.894 88.3603 253.35 87.9195C253.869 87.4752 254.284 86.9221 254.566 86.2995C254.974 85.4656 255.335 84.6093 255.646 83.7345C255.781 83.3295 256.051 83.3295 256.321 83.3295C256.512 83.3093 256.703 83.3572 256.862 83.4645C256.997 83.5995 257.402 83.5995 257.537 83.8695C257.158 85.0509 256.931 86.2758 256.862 87.5145C256.726 88.7295 256.456 90.0795 256.321 91.2945C256.321 91.6995 256.186 91.9695 255.916 91.9695C255.758 92.0769 255.566 92.1247 255.376 92.1045H234.442C233.226 92.1045 232.146 92.2395 231.065 92.2395C231.065 92.1045 230.93 91.8345 230.93 91.6995V91.2C230.905 91.0053 230.945 90.8077 231.042 90.6372C231.14 90.4667 231.29 90.3326 231.47 90.255C232.389 90.1125 233.293 89.8865 234.172 89.58C234.481 89.4865 234.746 89.2852 234.92 89.0127C235.093 88.7403 235.163 88.4147 235.117 88.095V62.85C235.139 62.5291 235.093 62.2071 234.982 61.905C234.963 61.789 234.916 61.6794 234.846 61.5853C234.775 61.4913 234.683 61.4157 234.577 61.365C234.317 61.1257 233.984 60.9827 233.631 60.96C233.08 60.8731 232.538 60.7376 232.011 60.555C231.605 60.42 231.335 60.285 231.335 59.745V59.205C231.315 59.0147 231.363 58.8234 231.47 58.665C232.551 58.665 233.631 58.8 234.847 58.8H243.761C244.349 58.8277 244.939 58.7824 245.517 58.665V59.745C245.541 59.9398 245.502 60.1374 245.405 60.3079C245.307 60.4783 245.157 60.6125 244.976 60.69C244.042 60.5996 243.102 60.7875 242.275 61.23C242.048 61.402 241.867 61.6279 241.749 61.8871C241.632 62.1464 241.58 62.4309 241.6 62.715V87.3795Z" fill="#E7E7E7"/>
<path d="M266.991 77.9295L258.887 62.4045C258.537 61.7831 258.023 61.2695 257.401 60.9195C256.761 60.5043 256.001 60.3142 255.24 60.3795C254.835 60.3795 254.7 59.9745 254.7 59.2995V58.4895C255.375 58.4895 256.321 58.6245 257.536 58.6245H266.991C267.49 58.653 267.99 58.6076 268.476 58.4895C268.492 58.7193 268.538 58.9462 268.611 59.1645V59.5695C268.611 60.1095 268.476 60.5145 268.071 60.5145C267.126 60.6495 266.585 60.6495 266.315 60.9195C266.162 60.9534 266.024 61.0389 265.926 61.1617C265.828 61.2845 265.774 61.4372 265.775 61.5945C265.831 61.9795 265.969 62.3479 266.18 62.6745L272.123 74.5545L278.066 63.6195C278.389 63.1381 278.575 62.5783 278.606 61.9995C278.615 61.8069 278.569 61.6157 278.473 61.4483C278.378 61.2809 278.236 61.1443 278.066 61.0545C277.411 60.8053 276.732 60.6243 276.04 60.5145C275.634 60.5145 275.364 60.1095 275.364 59.5695C275.367 59.2499 275.412 58.932 275.499 58.6245C276.175 58.6245 277.12 58.7595 278.201 58.7595H283.603C284.548 58.7595 285.359 58.6245 286.304 58.6245C286.304 58.7595 286.439 59.0295 286.439 59.1645V59.5695C286.439 60.1095 286.304 60.5145 285.899 60.5145C285.007 60.5677 284.135 60.7971 283.333 61.1895C283.057 61.2974 282.807 61.461 282.598 61.6701C282.389 61.8792 282.225 62.1292 282.117 62.4045L273.609 77.9295V88.0545C273.577 88.3758 273.623 88.7 273.744 88.9995C273.879 89.2695 274.149 89.4045 274.284 89.5395C274.597 89.777 274.972 89.9178 275.364 89.9445C275.96 90.0297 276.547 90.1652 277.12 90.3495C277.261 90.3727 277.398 90.4183 277.525 90.4845C277.648 90.6868 277.696 90.9256 277.66 91.1595V92.1045H274.689C273.744 92.1045 273.068 91.9695 272.123 91.9695H267.801C267.033 91.9471 266.265 91.9923 265.505 92.1045H263.074V91.2C263.074 90.795 263.074 90.66 263.209 90.525C263.344 90.39 263.344 90.39 263.614 90.39C264.215 90.334 264.805 90.1978 265.37 89.985C265.91 89.715 266.315 89.85 266.45 89.58C266.856 89.445 266.991 89.175 266.991 89.04C266.991 88.905 267.126 88.5 267.126 88.095L266.991 77.9295Z" fill="#E7E7E7"/>
<path d="M302.106 92.5501C299.538 92.5304 296.988 92.1207 294.543 91.3351C292.549 90.5066 290.753 89.2642 289.276 87.6901C287.908 86.1025 286.854 84.2701 286.169 82.2901C285.472 80.1536 285.107 77.9225 285.089 75.6751C285.131 73.6063 285.495 71.5566 286.169 69.6001C286.879 67.5616 287.98 65.6814 289.411 64.0651C290.901 62.3192 292.805 60.9734 294.948 60.1501C297.497 59.0195 300.264 58.4663 303.052 58.5301C304.681 58.5194 306.309 58.6549 307.914 58.9351C309.555 59.1945 311.179 59.5552 312.776 60.0151C312.793 61.1511 312.929 62.2823 313.181 63.3901C313.353 64.8137 313.669 66.2161 314.127 67.5751C313.894 67.5661 313.663 67.6124 313.451 67.7101H312.911C312.506 67.7101 312.371 67.7101 312.236 67.5751C312.101 67.4401 311.831 67.4401 311.831 67.0351C311.533 66.0476 311.125 65.0966 310.615 64.2001C310.181 63.5255 309.632 62.9317 308.994 62.4451C308.454 62.1751 307.509 61.7701 306.698 61.3651C305.674 61.1552 304.636 61.0198 303.592 60.9601C301.928 60.987 300.282 61.3069 298.73 61.9051C297.301 62.475 296.045 63.4053 295.083 64.6051C294.099 65.8474 293.365 67.2686 292.922 68.7901C292.399 70.5864 292.171 72.4557 292.247 74.3251C292.265 76.3852 292.584 78.4317 293.192 80.4001C293.684 82.1359 294.459 83.7782 295.488 85.2601C296.425 86.6184 297.676 87.7301 299.135 88.5001C300.595 89.2657 302.214 89.6816 303.862 89.7151C305.002 89.7575 306.141 89.6209 307.239 89.3101C308.147 89.0913 309.014 88.7266 309.805 88.2301C310.492 87.6506 311.084 86.9674 311.561 86.2051C312.139 85.3059 312.636 84.3572 313.046 83.3701C313.181 82.9651 313.181 82.8301 313.586 82.8301C313.789 82.7077 314.028 82.6599 314.262 82.6951H314.937C315.072 82.6951 315.477 82.8301 315.612 82.8301C315.477 83.3701 315.207 84.0451 314.937 84.8551C314.667 85.6651 314.397 86.3401 314.262 87.0151C314.127 87.6901 313.722 88.5001 313.586 89.3101C313.451 90.1201 313.181 90.7951 313.046 91.4701C311.401 91.8273 309.73 92.0531 308.049 92.1451C306.088 92.486 304.096 92.6217 302.106 92.5501Z" fill="#E7E7E7"/>
<path d="M318.178 75.3645C318.173 73.0764 318.681 70.8161 319.664 68.7495C320.593 66.7387 321.873 64.91 323.446 63.3495C325.012 61.8187 326.842 60.5838 328.848 59.7045C330.943 58.835 333.199 58.4208 335.466 58.4895C337.817 58.4628 340.153 58.8749 342.354 59.7045C344.396 60.5169 346.239 61.7602 347.756 63.3495C349.288 64.9149 350.523 66.7443 351.403 68.7495C352.297 70.931 352.711 73.279 352.618 75.6345C352.623 77.9227 352.115 80.1829 351.133 82.2495C350.272 84.2985 348.983 86.1397 347.351 87.6495C345.76 89.2124 343.879 90.4505 341.814 91.2945C339.719 92.1641 337.463 92.5783 335.196 92.5095C332.844 92.5362 330.508 92.1242 328.308 91.2945C326.265 90.4822 324.423 89.2389 322.905 87.6495C321.418 86.049 320.187 84.2273 319.259 82.2495C318.528 80.0281 318.163 77.7029 318.178 75.3645ZM336.006 89.9445C337.324 89.9364 338.621 89.6124 339.788 88.9995C340.975 88.3468 342.029 87.4767 342.894 86.4345C343.805 85.3157 344.493 84.0325 344.92 82.6545C345.417 81.1306 345.646 79.5317 345.595 77.9295C345.659 75.7045 345.432 73.4807 344.92 71.3145C344.508 69.4062 343.777 67.5807 342.759 65.9145C341.849 64.5162 340.707 63.2835 339.383 62.2695C337.916 61.3965 336.225 60.9739 334.52 61.0545C333.357 61.0037 332.198 61.2353 331.144 61.7295C330.006 62.2199 329.024 63.0139 328.308 64.0245C327.398 65.0938 326.71 66.3327 326.282 67.6695C325.775 69.2377 325.546 70.8825 325.606 72.5295C325.543 74.8883 325.77 77.246 326.282 79.5495C326.731 81.4893 327.458 83.3537 328.443 85.0845C329.276 86.5406 330.431 87.7873 331.819 88.7295C333.042 89.5861 334.514 90.0134 336.006 89.9445Z" fill="#E7E7E7"/>
<path d="M366.273 88.3245V89.2695C366.292 89.3855 366.339 89.4952 366.409 89.5892C366.48 89.6833 366.572 89.7588 366.678 89.8095C366.953 90.0241 367.279 90.1637 367.624 90.2145C368.175 90.3015 368.717 90.437 369.244 90.6195C369.65 90.6195 369.785 91.0245 369.785 91.5645V92.6445C368.704 92.6445 367.624 92.5095 366.408 92.5095H359.925C358.71 92.5095 357.629 92.6445 356.549 92.6445C356.549 92.5095 356.414 92.2395 356.414 92.1045V91.5645C356.414 91.0245 356.549 90.6195 356.954 90.6195C357.514 90.5818 358.063 90.4446 358.575 90.2145C358.98 90.0795 359.25 90.0795 359.52 89.8095C359.79 89.5395 359.925 89.4045 359.925 89.2695C359.99 88.9577 360.035 88.642 360.06 88.3245V62.85C360.082 62.529 360.036 62.2071 359.925 61.905C359.906 61.789 359.86 61.6794 359.789 61.5853C359.718 61.4913 359.626 61.4157 359.52 61.365C359.261 61.1257 358.927 60.9827 358.575 60.96C358.024 60.8731 357.481 60.7376 356.954 60.555C356.549 60.42 356.414 60.15 356.414 59.61V59.07C356.393 58.8797 356.441 58.6884 356.549 58.53C357.629 58.53 358.71 58.665 359.925 58.665H366.408C367.624 58.665 368.704 58.53 369.785 58.53V59.61C369.809 59.8048 369.77 60.0024 369.673 60.1728C369.575 60.3433 369.425 60.4775 369.244 60.555C368.684 60.5928 368.136 60.7299 367.624 60.96C367.218 61.095 366.948 61.095 366.678 61.365C366.408 61.635 366.273 61.77 366.273 61.905V88.365V88.3245Z" fill="#E7E7E7"/>
<path d="M400.701 81.1695V63.0795C400.728 62.7822 400.682 62.4826 400.567 62.2072C400.451 61.9318 400.27 61.6889 400.039 61.5C399.204 61.0663 398.279 60.8351 397.338 60.825C397.132 60.7718 396.952 60.6479 396.828 60.4751C396.705 60.3024 396.646 60.0917 396.662 59.88V59.475C396.662 59.205 396.662 59.07 396.797 58.935C397.648 59.0473 398.506 59.0924 399.364 59.07H405.036C405.711 59.07 406.657 58.935 407.332 58.935V59.88C407.332 60.42 407.197 60.825 406.792 60.825C405.992 60.9098 405.214 61.1385 404.496 61.5C404.291 61.6847 404.135 61.9165 404.041 62.1754C403.947 62.4342 403.917 62.7122 403.956 62.985V92.685H402.605C402.47 92.685 402.065 92.685 401.93 92.55C401.629 92.3053 401.313 92.0799 400.984 91.875L380.725 66.36V89.31C380.744 89.426 380.791 89.5357 380.862 89.6297C380.932 89.7237 381.024 89.7993 381.13 89.85C381.405 90.0646 381.731 90.2041 382.076 90.255C382.627 90.3419 383.169 90.4775 383.697 90.66C383.838 90.6832 383.975 90.7288 384.102 90.795C384.224 90.9973 384.272 91.2361 384.237 91.47C384.242 91.7902 384.196 92.1091 384.102 92.415C383.156 92.415 382.481 92.28 381.806 92.28H376.403C375.458 92.28 374.648 92.415 373.837 92.415C373.837 92.28 373.702 92.01 373.702 91.875V91.47C373.702 91.065 373.702 90.93 373.837 90.795C373.972 90.66 373.972 90.66 374.242 90.66C375.118 90.5216 375.978 90.2954 376.809 89.985C377.013 89.8003 377.169 89.5685 377.263 89.3096C377.357 89.0508 377.387 88.7728 377.349 88.5V62.5395C377.371 62.3076 377.333 62.0738 377.239 61.8609C377.144 61.648 376.996 61.4632 376.809 61.3245C376.107 60.9213 375.32 60.69 374.513 60.6495C374.107 60.5145 373.972 60.2445 373.972 59.7045V58.8H380.725C381.404 58.7563 382.085 58.8017 382.751 58.935C383.156 58.935 383.291 59.07 383.697 59.475L400.701 81.1695Z" fill="#E7E7E7"/>
<path d="M74.0036 56.64C76.3905 56.64 78.3255 54.7059 78.3255 52.32C78.3255 49.9341 76.3905 48 74.0036 48C71.6166 48 69.6816 49.9341 69.6816 52.32C69.6816 54.7059 71.6166 56.64 74.0036 56.64Z" fill="#FCFCFC"/>
<path d="M74.0036 67.9801C76.3905 67.9801 78.3255 66.046 78.3255 63.6601C78.3255 61.2742 76.3905 59.3401 74.0036 59.3401C71.6166 59.3401 69.6816 61.2742 69.6816 63.6601C69.6816 66.046 71.6166 67.9801 74.0036 67.9801Z" fill="#FCFCFC"/>
<path d="M74.0036 79.3199C76.3905 79.3199 78.3255 77.3858 78.3255 74.9999C78.3255 72.6141 76.3905 70.6799 74.0036 70.6799C71.6166 70.6799 69.6816 72.6141 69.6816 74.9999C69.6816 77.3858 71.6166 79.3199 74.0036 79.3199Z" fill="#FCFCFC"/>
<path d="M74.0036 90.66C76.3905 90.66 78.3255 88.7259 78.3255 86.34C78.3255 83.9541 76.3905 82.02 74.0036 82.02C71.6166 82.02 69.6816 83.9541 69.6816 86.34C69.6816 88.7259 71.6166 90.66 74.0036 90.66Z" fill="#969696"/>
<path d="M74.0036 102C76.3905 102 78.3255 100.066 78.3255 97.6801C78.3255 95.2942 76.3905 93.3601 74.0036 93.3601C71.6166 93.3601 69.6816 95.2942 69.6816 97.6801C69.6816 100.066 71.6166 102 74.0036 102Z" fill="#969696"/>
<path d="M74.0036 56.64C76.3905 56.64 78.3255 54.7059 78.3255 52.32C78.3255 49.9341 76.3905 48 74.0036 48C71.6166 48 69.6816 49.9341 69.6816 52.32C69.6816 54.7059 71.6166 56.64 74.0036 56.64Z" fill="#FCFCFC"/>
<path d="M74.0036 67.9801C76.3905 67.9801 78.3255 66.046 78.3255 63.6601C78.3255 61.2742 76.3905 59.3401 74.0036 59.3401C71.6166 59.3401 69.6816 61.2742 69.6816 63.6601C69.6816 66.046 71.6166 67.9801 74.0036 67.9801Z" fill="#FCFCFC"/>
<path d="M74.0036 79.3199C76.3905 79.3199 78.3255 77.3858 78.3255 74.9999C78.3255 72.6141 76.3905 70.6799 74.0036 70.6799C71.6166 70.6799 69.6816 72.6141 69.6816 74.9999C69.6816 77.3858 71.6166 79.3199 74.0036 79.3199Z" fill="#FCFCFC"/>
<path d="M74.0036 90.66C76.3905 90.66 78.3255 88.7259 78.3255 86.34C78.3255 83.9541 76.3905 82.02 74.0036 82.02C71.6166 82.02 69.6816 83.9541 69.6816 86.34C69.6816 88.7259 71.6166 90.66 74.0036 90.66Z" fill="#969696"/>
<path d="M74.0036 102C76.3905 102 78.3255 100.066 78.3255 97.6801C78.3255 95.2942 76.3905 93.3601 74.0036 93.3601C71.6166 93.3601 69.6816 95.2942 69.6816 97.6801C69.6816 100.066 71.6166 102 74.0036 102Z" fill="#969696"/>
<path d="M85.3493 56.64C87.7362 56.64 89.6712 54.7059 89.6712 52.32C89.6712 49.9341 87.7362 48 85.3493 48C82.9623 48 81.0273 49.9341 81.0273 52.32C81.0273 54.7059 82.9623 56.64 85.3493 56.64Z" fill="#FCFCFC"/>
<path d="M85.3493 67.9801C87.7362 67.9801 89.6712 66.046 89.6712 63.6601C89.6712 61.2742 87.7362 59.3401 85.3493 59.3401C82.9623 59.3401 81.0273 61.2742 81.0273 63.6601C81.0273 66.046 82.9623 67.9801 85.3493 67.9801Z" fill="#FCFCFC"/>
<path d="M85.3493 79.3199C87.7362 79.3199 89.6712 77.3858 89.6712 74.9999C89.6712 72.6141 87.7362 70.6799 85.3493 70.6799C82.9623 70.6799 81.0273 72.6141 81.0273 74.9999C81.0273 77.3858 82.9623 79.3199 85.3493 79.3199Z" fill="#FCFCFC"/>
<path d="M85.3493 90.66C87.7362 90.66 89.6712 88.7259 89.6712 86.34C89.6712 83.9541 87.7362 82.02 85.3493 82.02C82.9623 82.02 81.0273 83.9541 81.0273 86.34C81.0273 88.7259 82.9623 90.66 85.3493 90.66Z" fill="#969696"/>
<path d="M85.3493 102C87.7362 102 89.6712 100.066 89.6712 97.6801C89.6712 95.2942 87.7362 93.3601 85.3493 93.3601C82.9623 93.3601 81.0273 95.2942 81.0273 97.6801C81.0273 100.066 82.9623 102 85.3493 102Z" fill="#969696"/>
<path d="M96.694 56.64C99.0809 56.64 101.016 54.7059 101.016 52.32C101.016 49.9341 99.0809 48 96.694 48C94.3071 48 92.3721 49.9341 92.3721 52.32C92.3721 54.7059 94.3071 56.64 96.694 56.64Z" fill="#FCFCFC"/>
<path d="M96.694 67.9801C99.0809 67.9801 101.016 66.046 101.016 63.6601C101.016 61.2742 99.0809 59.3401 96.694 59.3401C94.3071 59.3401 92.3721 61.2742 92.3721 63.6601C92.3721 66.046 94.3071 67.9801 96.694 67.9801Z" fill="#FCFCFC"/>
<path d="M96.694 79.3199C99.0809 79.3199 101.016 77.3858 101.016 74.9999C101.016 72.6141 99.0809 70.6799 96.694 70.6799C94.3071 70.6799 92.3721 72.6141 92.3721 74.9999C92.3721 77.3858 94.3071 79.3199 96.694 79.3199Z" fill="#FCFCFC"/>
<path d="M96.694 90.66C99.0809 90.66 101.016 88.7259 101.016 86.34C101.016 83.9541 99.0809 82.02 96.694 82.02C94.3071 82.02 92.3721 83.9541 92.3721 86.34C92.3721 88.7259 94.3071 90.66 96.694 90.66Z" fill="#969696"/>
<path d="M108.039 67.9801C110.426 67.9801 112.361 66.046 112.361 63.6601C112.361 61.2742 110.426 59.3401 108.039 59.3401C105.652 59.3401 103.717 61.2742 103.717 63.6601C103.717 66.046 105.652 67.9801 108.039 67.9801Z" fill="#FCFCFC"/>
<path d="M108.039 79.3199C110.426 79.3199 112.361 77.3858 112.361 74.9999C112.361 72.6141 110.426 70.6799 108.039 70.6799C105.652 70.6799 103.717 72.6141 103.717 74.9999C103.717 77.3858 105.652 79.3199 108.039 79.3199Z" fill="#FCFCFC"/>
<path d="M108.039 90.66C110.426 90.66 112.361 88.7259 112.361 86.34C112.361 83.9541 110.426 82.02 108.039 82.02C105.652 82.02 103.717 83.9541 103.717 86.34C103.717 88.7259 105.652 90.66 108.039 90.66Z" fill="#969696"/>
<path d="M96.694 102C99.0809 102 101.016 100.066 101.016 97.6801C101.016 95.2942 99.0809 93.3601 96.694 93.3601C94.3071 93.3601 92.3721 95.2942 92.3721 97.6801C92.3721 100.066 94.3071 102 96.694 102Z" fill="#969696"/>
<path d="M119.384 102C121.771 102 123.706 100.066 123.706 97.6801C123.706 95.2942 121.771 93.3601 119.384 93.3601C116.997 93.3601 115.062 95.2942 115.062 97.6801C115.062 100.066 116.997 102 119.384 102Z" fill="#E7E7E7"/>
</g>
<defs>
<clipPath id="clip0_254_350">
<rect width="339" height="54" fill="white" transform="translate(69 48)"/>
</clipPath>
</defs>
</svg>
