<svg width="24" height="24" viewBox="0 0 24 24" fill="none" xmlns="http://www.w3.org/2000/svg">
<g id="arrow_downward_FILL0_wght400_GRAD0_opsz24 1">
<path id="Vector" d="M11.9999 4.425C11.8666 4.425 11.7416 4.44583 11.6249 4.4875C11.5082 4.52917 11.3999 4.6 11.2999 4.7L4.6999 11.3C4.4999 11.5 4.3999 11.7375 4.3999 12.0125C4.3999 12.2875 4.4999 12.525 4.6999 12.725C4.8999 12.925 5.13324 13.025 5.3999 13.025C5.66657 13.025 5.8999 12.925 6.0999 12.725L10.9999 7.825V19.025C10.9999 19.3083 11.0957 19.5417 11.2874 19.725C11.4791 19.9083 11.7166 20 11.9999 20C12.2832 20 12.5207 19.9042 12.7124 19.7125C12.9041 19.5208 12.9999 19.2833 12.9999 19V7.825L17.8999 12.725C18.0999 12.925 18.3332 13.025 18.5999 13.025C18.8666 13.025 19.0999 12.925 19.2999 12.725C19.4999 12.525 19.5999 12.2875 19.5999 12.0125C19.5999 11.7375 19.4999 11.5 19.2999 11.3L12.6999 4.7C12.5999 4.6 12.4916 4.52917 12.3749 4.4875C12.2582 4.44583 12.1332 4.425 11.9999 4.425Z" fill="white"/>
</g>
</svg>
