<svg width="476" height="150" viewBox="0 0 476 150" fill="none" xmlns="http://www.w3.org/2000/svg">
<mask id="mask0_254_340" style="mask-type:luminance" maskUnits="userSpaceOnUse" x="54" y="47" width="368" height="57">
<path d="M54 47H421.717V103.367H54V47Z" fill="white"/>
</mask>
<g mask="url(#mask0_254_340)">
<path fill-rule="evenodd" clip-rule="evenodd" d="M84.9713 56.3392H85.6085V48.3052H53.999V48.843C57.6446 51.7632 58.144 52.6167 58.144 55.8058V94.7002C58.144 97.8893 57.6446 98.7399 53.999 101.662V102.202H70.3951V101.662C66.7051 98.9255 66.0678 97.8893 66.0678 94.8362V75.5658H69.6185C74.2659 75.5658 75.0869 75.88 79.0451 80.8653H79.5934V68.2025H79.0451C75.0854 73.1835 74.2659 73.5021 69.6185 73.5021H66.0678V50.2768H71.4873C73.6761 50.2768 75.5403 50.9944 84.9728 56.3407L84.9713 56.3392ZM97.4432 79.2006H86.474L91.6711 63.5358C91.9112 64.0971 92.1527 64.7197 92.4121 65.4563L97.4432 79.2006ZM106.075 83.784L96.5629 58.001H87.9515V58.4979C89.1622 59.6087 89.9402 60.4564 90.5567 61.3918L83.4434 82.7039C82.1705 86.5229 81.3495 87.736 78.1129 90.6985V91.2422H88.0893V90.7C85.3566 89.0397 84.4467 87.964 84.4467 86.3885C84.4467 85.6285 84.6749 84.5966 85.2677 82.8428L85.8931 80.9545H98.0834L99.1993 84.0047C99.8854 85.9412 100.02 86.7495 100.02 87.4685C100.02 88.5881 99.2452 89.5322 97.1528 90.6985V91.2422H111.086V90.7C107.805 88.0502 107.305 87.1572 106.075 83.784ZM127.011 56.3407H127.651V48.5726C124.598 48.0318 121.182 47.5832 118.041 47.5832C108.882 47.5832 104.377 53.6047 104.377 60.0252C104.377 67.4352 109.251 71.8812 115.489 77.0054C122.227 82.5738 126.19 85.9412 126.19 92.3618C126.19 97.6628 122.64 100.897 117.906 100.897C113.761 100.897 110.481 99.2763 101.776 92.5401H101.012L104.193 101.302C108.02 102.364 111.975 102.908 115.95 102.918C126.376 102.918 132.433 96.6777 132.433 88.0078C132.433 80.0132 127.695 75.9268 120.953 70.5366C114.76 65.5908 110.524 61.5978 110.524 55.8482C110.524 52.1198 113.03 49.5606 116.902 49.5606C119.589 49.5606 121.458 50.5925 127.011 56.3407ZM167.135 56.3407H167.77V48.3008H130.52V56.3392H131.154C139.945 50.8628 141.723 50.1394 143.771 50.1394H145.185V94.8332C145.185 97.8864 144.545 98.9226 140.855 101.659V102.199H157.433V101.659C153.743 98.9226 153.104 97.8864 153.104 94.8332V50.1423H154.52C156.565 50.1423 158.343 50.8658 167.135 56.3422V56.3407ZM214.643 54.9069H215.286V47.988C211.596 47.4472 206.858 47 202.534 47C183.176 47 171.698 57.6473 171.698 75.2954C171.698 92.6351 182.673 103.369 201.801 103.369C206.765 103.369 211.229 102.651 214.782 101.705L216.19 94.0279H215.559C208.407 100.001 205.218 101.393 200.028 101.393C185.725 101.393 180.942 90.7453 180.942 74.9826C180.942 58.9466 185.725 49.1558 199.252 49.1558C203.574 49.1558 206.633 50.1408 214.643 54.9069ZM212.798 74.9826C212.798 83.8775 212.027 89.7573 205.511 89.7573C198.954 89.7573 198.223 83.8775 198.223 74.9812C198.223 66.0877 198.954 60.2035 205.511 60.2035C212.07 60.2035 212.798 66.0877 212.798 74.9826ZM220.54 74.9826C220.54 65.5908 214.893 58.5403 205.513 58.5403C196.132 58.5403 190.485 65.6434 190.485 74.9826C190.485 84.278 196.131 91.4176 205.511 91.4176C214.895 91.4176 220.54 84.278 220.54 74.9826ZM254.039 102.106L270.251 102.199V101.659C266.608 98.7385 266.11 97.8879 266.11 94.6988V55.8043C266.11 52.6152 266.608 51.7617 270.252 48.8854V48.3475L258.776 48.2569L246.033 88.0692L233 48.3022H221.389V48.8415C223.577 50.7182 224.919 51.94 225.894 53.1955V90.8798C225.894 95.2352 225.348 96.989 221.246 101.66V102.201H234.231V101.66C228.763 97.217 227.992 95.4193 227.992 90.8798V57.3506C228.081 57.6078 228.17 57.8505 228.259 58.1369L242.886 102.65H243.52L258.181 56.8362V94.6535C258.181 97.844 257.681 98.6946 254.039 101.571V102.106ZM300.971 64.7898C300.971 74.8935 298.559 79.1144 290.724 79.1144H286.214V50.2768H289.4C298.055 50.2768 300.971 53.916 300.971 64.7898ZM309.439 64.4274C309.439 52.2995 300.832 48.3037 289.175 48.3037H274.148V48.8415C277.788 51.7617 278.287 52.6152 278.287 55.8043V94.6988C278.287 97.8879 277.788 98.7385 274.148 101.66V102.201H290.541V101.66C286.85 98.9241 286.214 97.8878 286.214 94.8347V81.0904H290.491C300.787 81.0904 309.439 76.7759 309.439 64.4274ZM329.442 82.5285H313.975L321.594 55.3629C321.755 55.8262 321.914 56.3217 322.075 56.88L329.44 82.53L329.442 82.5285ZM421.719 48.8401V48.3052H409.38V48.843C412.704 51.7632 413.704 53.1545 413.704 55.2665C413.704 56.3889 413.432 57.2863 412.517 59.3544L405.434 75.6929L396.172 55.4433C395.441 53.8751 395.21 53.0186 395.21 52.2133C395.21 50.7766 396.034 49.9655 398.263 48.843V48.3037H370.94V48.8415C377.043 53.2905 377.865 55.0385 377.865 59.9375V90.9368L355.05 48.3022H343.706V48.8401C346.072 50.8424 347.444 52.092 348.626 53.6383V91.0098C348.626 95.0715 348.168 96.8385 344.901 101.659C342.385 98.5485 341.837 97.0548 340.562 92.6322L327.677 48.3037H316.611V48.8415C318.351 50.3469 319.449 51.3905 320.272 52.6123L309.553 90.6591C308.004 96.1837 306.771 97.844 302.674 101.66V102.201H315.884V101.66C312.102 98.8305 310.921 97.3939 310.921 94.9224C310.921 93.9359 311.149 92.5401 311.696 90.6591L313.407 84.5498H330.015L332.324 92.5883C333.05 95.1051 333.325 96.1837 333.325 97.1702C333.325 98.5616 332.739 99.5058 329.956 101.66V102.201H357.646V101.66C351.538 97.217 350.722 95.4632 350.722 91.0128V56.9911C350.767 57.0817 350.811 57.1489 350.856 57.2425L374.949 102.199H379.962V59.9375C379.962 55.4652 380.413 53.6865 383.562 48.8693C385.613 51.3174 386.914 53.3752 388.609 57.108L398.446 78.5444V94.8362C398.446 97.8878 397.806 98.9241 394.119 101.66V102.201H410.7V101.66C407.008 98.9241 406.375 97.8878 406.375 94.8347V78.3018L414.567 59.4874C416.302 55.4901 417.62 53.6062 421.72 48.843L421.719 48.8401Z" fill="white"/>
</g>
</svg>
