<svg width="25" height="24" viewBox="0 0 25 24" fill="none" xmlns="http://www.w3.org/2000/svg">
<g id="menu_book_FILL0_wght400_GRAD0_opsz24 1">
<path id="Vector" d="M14.495 8.775C14.495 8.625 14.5492 8.47083 14.6575 8.3125C14.7658 8.15417 14.8867 8.05 15.02 8C15.5033 7.83333 15.9867 7.70833 16.47 7.625C16.9533 7.54167 17.4617 7.5 17.995 7.5C18.3283 7.5 18.6575 7.52083 18.9825 7.5625C19.3075 7.60417 19.6283 7.65833 19.945 7.725C20.095 7.75833 20.2242 7.84167 20.3325 7.975C20.4408 8.10833 20.495 8.25833 20.495 8.425C20.495 8.70833 20.4033 8.91667 20.22 9.05C20.0367 9.18333 19.8033 9.21667 19.52 9.15C19.2867 9.1 19.0408 9.0625 18.7825 9.0375C18.5242 9.0125 18.2617 9 17.995 9C17.5617 9 17.1367 9.04167 16.72 9.125C16.3033 9.20833 15.9033 9.31667 15.52 9.45C15.22 9.56667 14.9742 9.55833 14.7825 9.425C14.5908 9.29167 14.495 9.075 14.495 8.775ZM14.495 14.275C14.495 14.125 14.5492 13.9708 14.6575 13.8125C14.7658 13.6542 14.8867 13.55 15.02 13.5C15.5033 13.3333 15.9867 13.2083 16.47 13.125C16.9533 13.0417 17.4617 13 17.995 13C18.3283 13 18.6575 13.0208 18.9825 13.0625C19.3075 13.1042 19.6283 13.1583 19.945 13.225C20.095 13.2583 20.2242 13.3417 20.3325 13.475C20.4408 13.6083 20.495 13.7583 20.495 13.925C20.495 14.2083 20.4033 14.4167 20.22 14.55C20.0367 14.6833 19.8033 14.7167 19.52 14.65C19.2867 14.6 19.0408 14.5625 18.7825 14.5375C18.5242 14.5125 18.2617 14.5 17.995 14.5C17.5617 14.5 17.1367 14.5375 16.72 14.6125C16.3033 14.6875 15.9033 14.7917 15.52 14.925C15.22 15.0417 14.9742 15.0375 14.7825 14.9125C14.5908 14.7875 14.495 14.575 14.495 14.275ZM14.495 11.525C14.495 11.375 14.5492 11.2208 14.6575 11.0625C14.7658 10.9042 14.8867 10.8 15.02 10.75C15.5033 10.5833 15.9867 10.4583 16.47 10.375C16.9533 10.2917 17.4617 10.25 17.995 10.25C18.3283 10.25 18.6575 10.2708 18.9825 10.3125C19.3075 10.3542 19.6283 10.4083 19.945 10.475C20.095 10.5083 20.2242 10.5917 20.3325 10.725C20.4408 10.8583 20.495 11.0083 20.495 11.175C20.495 11.4583 20.4033 11.6667 20.22 11.8C20.0367 11.9333 19.8033 11.9667 19.52 11.9C19.2867 11.85 19.0408 11.8125 18.7825 11.7875C18.5242 11.7625 18.2617 11.75 17.995 11.75C17.5617 11.75 17.1367 11.7917 16.72 11.875C16.3033 11.9583 15.9033 12.0667 15.52 12.2C15.22 12.3167 14.9742 12.3083 14.7825 12.175C14.5908 12.0417 14.495 11.825 14.495 11.525ZM6.995 16C7.77833 16 8.54083 16.0875 9.2825 16.2625C10.0242 16.4375 10.7617 16.7 11.495 17.05V7.2C10.8117 6.8 10.0867 6.5 9.32 6.3C8.55333 6.1 7.77833 6 6.995 6C6.395 6 5.79916 6.05833 5.2075 6.175C4.61583 6.29167 4.045 6.46667 3.495 6.7V16.6C4.07833 16.4 4.6575 16.25 5.2325 16.15C5.8075 16.05 6.395 16 6.995 16ZM13.495 17.05C14.2283 16.7 14.9658 16.4375 15.7075 16.2625C16.4492 16.0875 17.2117 16 17.995 16C18.595 16 19.1825 16.05 19.7575 16.15C20.3325 16.25 20.9117 16.4 21.495 16.6V6.7C20.945 6.46667 20.3742 6.29167 19.7825 6.175C19.1908 6.05833 18.595 6 17.995 6C17.2117 6 16.4367 6.1 15.67 6.3C14.9033 6.5 14.1783 6.8 13.495 7.2V17.05ZM12.495 19.475C12.2617 19.475 12.0408 19.4458 11.8325 19.3875C11.6242 19.3292 11.4283 19.25 11.245 19.15C10.595 18.7667 9.91166 18.4792 9.195 18.2875C8.47833 18.0958 7.745 18 6.995 18C6.295 18 5.6075 18.0917 4.9325 18.275C4.2575 18.4583 3.61166 18.7167 2.995 19.05C2.645 19.2333 2.3075 19.225 1.9825 19.025C1.6575 18.825 1.495 18.5333 1.495 18.15V6.1C1.495 5.91667 1.54083 5.74167 1.6325 5.575C1.72416 5.40833 1.86166 5.28333 2.045 5.2C2.81166 4.8 3.61166 4.5 4.445 4.3C5.27833 4.1 6.12833 4 6.995 4C7.96166 4 8.9075 4.125 9.8325 4.375C10.7575 4.625 11.645 5 12.495 5.5C13.345 5 14.2325 4.625 15.1575 4.375C16.0825 4.125 17.0283 4 17.995 4C18.8617 4 19.7117 4.1 20.545 4.3C21.3783 4.5 22.1783 4.8 22.945 5.2C23.1283 5.28333 23.2658 5.40833 23.3575 5.575C23.4492 5.74167 23.495 5.91667 23.495 6.1V18.15C23.495 18.5333 23.3325 18.825 23.0075 19.025C22.6825 19.225 22.345 19.2333 21.995 19.05C21.3783 18.7167 20.7325 18.4583 20.0575 18.275C19.3825 18.0917 18.695 18 17.995 18C17.245 18 16.5117 18.0958 15.795 18.2875C15.0783 18.4792 14.395 18.7667 13.745 19.15C13.5617 19.25 13.3658 19.3292 13.1575 19.3875C12.9492 19.4458 12.7283 19.475 12.495 19.475Z" fill="white"/>
</g>
</svg>
