<svg width="476" height="150" viewBox="0 0 476 150" fill="none" xmlns="http://www.w3.org/2000/svg">
<path d="M157 108H190.632V96.3678H187.345C186.333 96.3678 184.816 94.5977 184.816 93.5862V56.9195C184.816 55.908 186.333 54.1379 187.345 54.1379H190.632V42H157V54.1379H160.035C161.299 54.1379 162.816 55.908 162.816 56.9195V93.5862C162.816 94.5977 161.299 96.3678 160.035 96.3678H157V108Z" fill="#E7E7E7"/>
<path d="M195.689 107.494H227.552C245.253 107.494 256.126 101.172 256.126 88.5287C256.126 79.6782 250.816 74.8736 241.207 73.3563V72.8506C249.299 70.8276 254.356 67.0345 254.356 58.9425C254.356 47.5632 245 42 227.552 42H195.942V53.8851H198.724C199.988 53.8851 201.506 55.6552 201.506 56.6667V93.3333C201.506 94.3448 199.988 96.1149 198.724 96.1149H195.942V107.494H195.689ZM222.494 95.6092V79.931H226.034C231.85 79.931 234.126 82.4598 234.126 87.7701C234.126 93.0805 231.85 95.8621 226.034 95.8621H222.494V95.6092ZM222.494 54.3908H225.781C231.092 54.3908 233.115 56.9195 233.115 61.4713C233.115 66.023 230.839 68.5517 225.781 68.5517H222.494V54.3908Z" fill="#E7E7E7"/>
<path d="M272.31 107.494H305.69V95.8621H302.655C301.391 95.8621 299.874 94.0919 299.874 93.0805V54.3908H305.184L306.701 66.5287H319.851V42H258.655V66.5287H271.805L273.322 54.3908H278.632V93.0805C278.632 94.0919 277.115 95.8621 275.851 95.8621H272.816L272.31 107.494Z" fill="#E7E7E7"/>
</svg>
