<svg width="474" height="150" viewBox="0 0 474 150" fill="none" xmlns="http://www.w3.org/2000/svg">
<g clip-path="url(#clip0_651_412)">
<path fill-rule="evenodd" clip-rule="evenodd" d="M205.115 58.9964V83.4152H211.13H217.146V74.0234C217.146 67.8248 217.146 64.4437 217.146 64.068C217.334 63.1288 217.522 62.1897 218.086 61.4383C218.838 60.1235 220.154 59.5599 221.658 59.7478C223.726 59.9356 225.042 61.0626 225.418 63.5045C225.418 63.8802 225.418 67.6369 225.418 73.6477V83.2274H231.433H237.449V71.9572C237.449 62.3775 237.449 60.4991 237.261 59.5599C236.885 56.1789 235.757 53.5492 233.689 51.6708C231.997 49.9803 229.929 49.0411 227.485 48.6654C226.545 48.4776 223.914 48.6654 223.162 48.8532C220.906 49.4167 219.214 50.1681 217.71 51.8586L216.77 52.61V43.5938V34.5776H210.754H204.739V58.9964H205.115ZM332.946 34.9533C332.57 35.7047 320.351 65.1951 320.351 65.1951C320.351 65.1951 323.547 65.1951 327.495 65.1951H334.638L341.03 49.9803C344.602 41.5276 347.421 34.5776 347.421 34.5776C347.421 34.5776 344.226 34.5776 340.278 34.5776H333.134L332.946 34.9533ZM178.797 48.8532C176.165 49.2289 174.097 49.9803 172.029 51.2951C167.893 53.9248 165.262 58.4329 164.51 63.6924C164.134 66.1342 164.322 69.1396 164.886 71.3937C166.389 77.2166 170.337 81.7247 175.413 83.4152C177.293 83.9787 178.045 84.1666 180.301 84.1666C181.992 84.1666 182.556 84.1666 183.12 83.9787C185.564 83.4152 187.256 82.4761 188.76 80.9734L189.512 80.222V81.7247V83.2274H195.34H201.167V66.3221V49.4168H195.34H189.512V50.9194V52.4221L188.948 51.8586C187.632 50.3559 185.752 49.4167 183.308 48.8532C182.556 48.6654 182.18 48.6654 180.677 48.6654C179.737 48.8532 178.985 48.8532 178.797 48.8532ZM255.495 48.8532C252.3 49.2289 248.916 50.7316 246.472 52.61C241.772 56.5546 239.329 62.7532 240.269 69.1396C241.208 76.2774 246.284 81.7247 253.428 83.6031C254.932 83.9787 256.435 84.1666 258.315 84.1666C261.699 84.1666 264.143 83.6031 266.775 82.2882C272.038 79.6585 275.422 74.9626 276.174 69.1396C276.362 67.6369 276.362 65.1951 276.174 63.8802C275.798 61.0626 274.67 58.2451 272.978 55.991C272.226 55.0519 270.722 53.3613 269.783 52.61C267.151 50.5438 264.143 49.2289 260.759 48.8532C259.443 48.6654 256.811 48.6654 255.495 48.8532ZM293.845 48.8532C290.649 49.2289 287.453 50.5438 285.01 52.61C284.07 53.3613 282.378 55.0519 281.814 55.991C280.122 58.2451 279.182 61.0626 278.618 63.8802C278.43 65.1951 278.43 67.8248 278.618 69.1396C279.746 76.6531 285.198 82.476 292.717 83.9787C294.221 84.3544 294.973 84.3544 296.665 84.3544C299.861 84.3544 302.68 83.7909 305.312 82.2882C312.268 78.7193 316.027 70.8302 314.336 62.7532C312.832 55.2397 306.816 49.7924 299.109 48.8532C297.793 48.6654 295.161 48.6654 293.845 48.8532ZM125.596 49.6046C125.596 49.6046 128.792 57.3059 132.74 66.6977C136.687 76.0896 139.883 83.7909 139.883 83.7909C139.883 83.7909 138.755 86.6085 137.251 89.9895C135.748 93.3706 134.62 96.0003 134.62 96.1881C134.62 96.376 137.439 96.1881 141.011 96.1881H147.403L156.99 73.0842C162.254 60.3113 166.577 49.9803 166.577 49.7924C166.577 49.7924 165.262 49.6046 160.186 49.7924H153.794L149.847 59.5599C148.155 64.8194 146.463 69.3275 146.463 69.3275C146.463 69.3275 144.771 64.8194 142.515 59.5599L138.755 49.7924H132.176C128.604 49.6046 125.596 49.6046 125.596 49.6046ZM184.624 59.7478C187.068 60.3113 188.948 62.1897 189.7 64.6315C189.888 65.5707 189.888 67.2613 189.7 68.2004C189.136 70.6423 187.256 72.5207 184.812 73.0842C183.872 73.272 182.18 73.272 181.24 73.0842C179.173 72.5207 177.293 71.018 176.541 69.1396C175.601 67.0734 175.977 64.4437 177.105 62.5653C178.797 60.1235 181.616 59.1843 184.624 59.7478ZM259.631 59.9356C262.263 60.3113 264.331 62.3775 264.895 65.0072C265.083 65.9464 265.083 67.4491 264.895 68.3883C264.331 70.8302 262.451 72.5207 260.195 73.272C259.443 73.4599 257.375 73.4599 256.623 73.272C254.744 72.7085 253.24 71.3937 252.3 69.7031C251.736 68.5761 251.736 68.0126 251.736 66.6977C251.736 65.5707 251.924 65.0072 252.3 64.068C252.864 62.941 253.616 61.814 254.744 61.0626C255.871 59.9356 257.751 59.5599 259.631 59.9356ZM297.793 59.9356C300.049 60.3113 301.928 61.814 302.68 63.8802C303.056 64.8194 303.244 65.3829 303.244 66.5099C303.244 67.8248 303.056 68.3883 302.68 69.5153C301.928 71.2058 300.236 72.5207 298.357 73.0842C297.605 73.272 295.537 73.272 294.785 73.0842C292.529 72.5207 290.649 70.6423 290.085 68.2004C289.897 67.2613 289.897 65.5707 290.085 64.6315C290.837 61.6262 293.469 59.5599 296.477 59.5599C296.853 59.7478 297.417 59.7478 297.793 59.9356ZM323.359 68.2004C319.787 68.5761 317.155 71.2058 316.403 74.5869C316.215 75.5261 316.215 77.2166 316.403 78.1558C317.155 81.1612 319.411 83.2274 322.419 83.9787C322.795 83.9787 323.547 84.1666 324.111 84.1666C326.367 84.1666 328.247 83.4152 329.751 81.9125C331.442 80.222 332.006 78.5315 332.006 76.2774C332.006 73.4599 330.69 71.018 328.435 69.7031C326.931 68.3883 324.863 68.0126 323.359 68.2004ZM224.29 86.6085C221.846 87.3598 220.718 90.1774 222.034 92.2436C222.41 92.8071 223.162 93.5584 223.726 93.7463C224.29 93.9341 224.29 93.9341 225.418 93.9341C226.357 93.9341 226.545 93.9341 227.109 93.7463C227.861 93.3706 228.613 92.6192 228.989 91.8679C229.929 89.9895 228.989 87.7355 227.109 86.7963C226.545 86.4206 226.357 86.4206 225.605 86.4206C224.854 86.4206 224.666 86.4206 224.29 86.6085ZM214.138 86.7963C210.942 87.3598 208.875 89.426 207.935 92.8071C207.747 93.3706 207.747 93.9341 207.747 94.6854V96.0003H206.431H205.115V98.8179V101.635H206.431H207.747V108.398V115.16H211.318H214.89V108.398V101.635H217.334H219.778V98.8179V96.0003H217.334H214.89V95.4368C215.078 94.1219 215.642 93.1827 216.77 92.9949C217.522 92.8071 218.65 92.8071 219.402 93.1828C219.778 93.3706 219.966 93.3706 219.966 93.3706C219.966 93.3706 219.966 92.0557 219.966 90.3652V87.3598L219.402 87.172C218.65 86.7963 217.71 86.7963 216.394 86.7963C215.454 86.6085 214.702 86.7963 214.138 86.7963ZM242.712 95.6246C241.208 96.0003 240.081 96.7517 239.329 97.6908L238.953 98.2544V97.1273V96.0003H235.381H231.809V105.58V115.16H235.381H238.953V109.9C238.953 106.895 238.953 104.453 238.953 104.077C239.141 103.326 239.517 102.575 239.893 102.199C240.832 101.448 242.524 101.635 243.276 102.575C243.84 103.326 243.84 103.326 243.84 109.337V114.972H247.412H250.984V108.585C250.984 101.823 250.984 101.072 250.608 99.757C250.232 98.63 249.856 97.6908 248.916 96.9395C248.164 96.1881 247.412 95.6246 246.284 95.4368C245.344 95.4368 243.464 95.4368 242.712 95.6246ZM260.571 95.4368C259.443 95.6246 257.751 96.1881 256.811 96.9395C254.744 98.4422 253.428 100.696 252.864 103.514C252.676 104.641 252.676 106.707 252.864 107.834C253.24 109.525 253.804 111.215 254.744 112.342C256.059 114.033 257.751 115.16 259.819 115.535C260.947 115.723 262.827 115.723 263.767 115.348C264.895 114.972 265.647 114.596 266.587 113.845L267.339 113.093V114.033V114.972H270.91H274.482V105.392V95.8125H270.91H267.339V96.7517V97.6908L266.775 97.503C265.835 96.5638 264.519 95.8125 263.015 95.6246C262.451 95.4368 261.135 95.4368 260.571 95.4368ZM287.829 95.6246C286.513 95.8125 285.198 96.7517 284.446 97.6908L284.07 98.0665V96.9395V95.8125H280.498H276.926V105.392V114.972H280.498H284.07V109.525C284.07 103.702 284.07 103.702 284.446 102.762C284.822 102.011 285.573 101.635 286.325 101.635C287.077 101.635 287.453 101.823 288.017 102.199C288.769 102.95 288.769 102.762 288.769 109.149V114.784H292.341H295.913V107.834C295.913 100.884 295.913 100.884 295.725 100.133C295.537 99.757 295.349 99.0057 295.161 98.4422C294.785 97.6908 294.597 97.503 294.033 96.9395C293.281 96.1881 292.717 95.8125 291.965 95.4368C290.649 95.4368 289.145 95.249 287.829 95.6246ZM306.44 95.6246C303.244 96.1881 300.8 97.6908 299.297 100.321C298.921 101.072 298.545 102.011 298.169 102.95C297.981 103.889 297.981 104.077 297.981 105.58C297.981 107.271 297.981 107.834 298.545 109.149C299.673 112.342 302.304 114.784 305.876 115.535C306.44 115.723 307.004 115.723 308.32 115.723C310.2 115.723 310.952 115.535 312.268 114.972L313.02 114.596V111.403V108.21L312.456 108.585C311.516 109.149 310.952 109.337 309.824 109.337C308.696 109.337 308.132 109.337 307.38 108.961C306.628 108.585 306.064 108.022 305.688 107.271C305.5 106.707 305.5 106.707 305.5 105.768C305.5 105.016 305.5 104.829 305.688 104.265C306.252 102.762 307.568 102.011 309.448 101.823C310.764 101.823 311.328 101.823 313.208 102.762C313.208 102.762 313.208 101.26 313.208 99.5692V96.376L312.644 96.1881C310.576 95.4368 308.32 95.249 306.44 95.6246ZM322.607 95.6246C317.155 96.5638 313.772 101.26 314.148 106.707C314.336 108.585 314.9 110.276 315.839 111.591C317.155 113.657 319.223 114.972 321.855 115.535C322.983 115.723 325.991 115.723 327.307 115.535C329.187 115.16 330.878 114.22 332.194 112.906C332.758 112.342 333.698 111.027 333.698 111.027C333.698 111.027 332.382 110.464 330.69 109.9L327.683 108.773L327.307 109.149C326.743 109.712 326.367 109.9 325.615 110.088C323.547 110.652 321.479 109.525 321.103 107.646V107.271H327.683H334.262V105.58C334.262 104.453 334.262 103.702 334.074 103.326C333.698 101.072 332.758 99.5692 331.442 98.0665C330.126 96.7517 328.623 96.0003 326.555 95.6246C325.803 95.4368 323.547 95.4368 322.607 95.6246ZM221.846 105.58V115.16H225.418H228.989V105.58V96.0003H225.418H221.846V105.58ZM325.427 100.884C325.991 101.072 326.179 101.26 326.743 101.635C327.119 102.011 327.495 102.387 327.495 102.95V103.326H324.299C320.727 103.326 320.915 103.326 321.291 102.575C321.855 101.26 323.547 100.508 325.427 100.884ZM264.707 101.823C265.647 102.011 266.775 102.95 267.151 103.889C268.091 105.956 267.151 108.398 264.895 109.149C264.143 109.337 263.015 109.337 262.263 109.149C261.135 108.773 260.007 107.834 259.819 106.707C259.631 106.144 259.631 105.956 259.631 105.392C259.631 104.641 259.631 104.453 260.007 103.889C260.759 102.199 262.639 101.448 264.707 101.823Z" fill="white"/>
</g>
<defs>
<clipPath id="clip0_651_412">
<rect width="220" height="149" fill="white" transform="translate(127 1)"/>
</clipPath>
</defs>
</svg>
