<svg width="474" height="150" viewBox="0 0 474 150" fill="none" xmlns="http://www.w3.org/2000/svg">
<g clip-path="url(#clip0_651_400)">
<path d="M137.683 48.9633H143.072C146.354 48.4831 149.705 48.9053 152.763 50.1842C156.598 52.4763 159.38 56.1664 160.515 60.4674C161.319 62.7212 161.319 62.7212 163.257 61.923H164.769V44.08H114.047V47.226H116.127C117.031 47.2198 117.925 47.4148 118.743 47.7967C119.561 48.1786 120.282 48.7377 120.854 49.4329C122.793 52.5319 123.123 56.0066 123.123 74.0844C123.123 93.2891 122.698 97.9846 120.854 100.379C120.399 100.995 119.81 101.501 119.131 101.858C118.451 102.216 117.699 102.417 116.931 102.445C114.047 102.962 114.047 102.915 114.047 104.183C113.888 104.607 113.888 105.073 114.047 105.497H146.05C146.262 105.083 146.372 104.624 146.372 104.159C146.372 103.694 146.262 103.236 146.05 102.821C145.275 102.607 144.485 102.45 143.686 102.351C142.823 102.249 141.969 102.077 141.134 101.835C139.938 100.968 138.991 99.8055 138.385 98.4632C137.78 97.1209 137.538 95.6449 137.683 94.1812C137.21 91.0822 136.974 85.4006 136.974 80.7051V76.9956H138.865C141.221 76.924 143.575 77.1768 145.861 77.7469C146.956 78.4191 147.888 79.3232 148.591 80.3946C149.294 81.466 149.75 82.6783 149.926 83.945L150.352 85.4006H153.235V64.5994H150.588L150.163 66.6185C149.984 67.9138 149.501 69.1494 148.754 70.2259C148.007 71.3023 147.016 72.1897 145.861 72.8166C144.742 73.1473 143.564 73.2274 142.41 73.0514H136.974V67.9802C136.974 62.7212 137.258 51.6398 137.447 49.9024L137.683 48.9633ZM358.913 86.1988C356.678 82.6265 353.193 80.0009 349.128 78.8269C346.011 77.8591 343.13 76.2603 340.666 74.1313C340.112 73.5987 339.697 72.9394 339.458 72.211C339.219 71.4826 339.163 70.7071 339.295 69.9523C339.299 68.4718 339.894 67.0532 340.95 66.0081C341.665 65.2636 342.571 64.7263 343.57 64.4533C344.569 64.1804 345.624 64.1822 346.622 64.4585C348.689 65.0436 350.558 66.1729 352.031 67.727C353.503 69.281 354.526 71.2019 354.989 73.2861C355.746 75.3991 355.84 75.3991 357.211 74.8357L358.062 74.507V62.8151L357.447 62.5334C352.794 60.9098 347.857 60.239 342.935 60.5613C338.697 60.6679 334.651 62.3424 331.59 65.2568C330.202 66.5475 329.115 68.1241 328.404 69.876C327.694 71.628 327.377 73.513 327.477 75.3991C327.504 78.2827 328.656 81.0436 330.692 83.0998C332.941 85.2973 335.701 86.91 338.728 87.7953C346.055 90.6596 348.182 92.4908 348.182 95.8246C348.214 97.2305 347.763 98.6053 346.904 99.723C346.045 100.841 344.829 101.635 343.455 101.976C341.805 102.336 340.095 102.336 338.444 101.976C336.283 101.143 334.354 99.809 332.816 98.0857C331.279 96.3624 330.178 94.2994 329.605 92.0682L328.99 90.5657H328.139C327.733 90.5957 327.333 90.6908 326.957 90.8474H326.485V104.183H327.288C330.482 105.238 333.777 105.962 337.121 106.343H341.848C343.898 106.492 345.959 106.302 347.946 105.779C350.469 105.317 352.826 104.207 354.783 102.559C356.74 100.912 358.229 98.7842 359.102 96.3881C359.666 95.0498 359.955 93.613 359.953 92.1621C360.139 90.1182 359.78 88.0615 358.913 86.1988ZM314.383 61.923C311.551 60.7416 308.498 60.1686 305.427 60.2414C302.356 60.3142 299.335 61.0313 296.562 62.3456C293.956 63.6119 291.646 65.4069 289.781 67.6149C287.917 69.8229 286.539 72.3947 285.737 75.1643C284.714 78.1857 284.281 81.3729 284.46 84.5554C284.427 86.2869 284.569 88.0174 284.886 89.7205C285.649 93.908 287.684 97.7631 290.718 100.768C293.752 103.773 297.639 105.784 301.856 106.53C304.603 106.874 307.382 106.874 310.129 106.53C312.979 106.031 315.707 104.995 318.165 103.478C320.198 102.346 321.919 100.733 323.176 98.7828C323.095 98.4768 322.953 98.1901 322.758 97.94C322.563 97.6898 322.319 97.4814 322.041 97.3272C321.502 97.5213 320.992 97.79 320.528 98.1255C318.177 99.6647 315.401 100.436 312.587 100.332C310.719 100.458 308.847 100.169 307.105 99.4867C305.364 98.8045 303.797 97.7461 302.518 96.3881C301.529 95.4754 300.712 94.394 300.107 93.1952C298.638 90.2761 297.847 87.0671 297.791 83.8041V81.9729H323.979V81.0337C324.037 80.0955 324.037 79.1547 323.979 78.2164C323.97 74.9009 323.077 71.647 321.392 68.7852C319.706 65.9234 317.288 63.5558 314.383 61.923ZM301.195 78.1695H297.886V75.3991C298.973 68.3089 301.667 64.0829 304.976 64.0829C308.285 64.0829 309.703 68.2619 310.318 75.9156V78.0756H307.482L301.195 78.1695ZM233.218 60.3734C231.585 60.3105 229.961 60.6492 228.491 61.3595C225.296 62.9007 222.716 65.464 221.164 68.6376L220.55 69.7645V60.3734H220.313C219.746 60.3734 202.256 63.8481 201.688 64.0829C201.121 64.3177 201.31 64.3646 201.31 65.2098C201.31 66.055 201.31 66.1959 201.688 66.2428L203.532 66.6185C204.048 66.6311 204.555 66.7602 205.014 66.9961C205.472 67.2321 205.871 67.5686 206.179 67.9802C207.361 69.5297 207.597 72.2531 207.597 83.8511C207.831 89.0723 207.609 94.3038 206.935 99.4872C206.777 100.269 206.378 100.982 205.794 101.529C205.209 102.076 204.469 102.429 203.674 102.539L202.067 102.868H201.452V104.183C201.281 104.621 201.281 105.106 201.452 105.544H227.877V104.183C227.968 103.733 227.968 103.27 227.877 102.821C226.286 102.759 224.704 102.555 223.15 102.211C222.303 101.771 221.611 101.087 221.164 100.249C220.717 99.4106 220.535 98.4575 220.644 97.515C220.266 94.7916 220.077 86.8092 220.171 80.7051C220.266 74.6009 220.171 74.2252 220.691 73.8026C222.273 72.5979 224.231 71.9831 226.222 72.0653C228.099 72.106 229.943 72.5717 231.611 73.427C232.19 73.7461 232.81 73.9831 233.455 74.1313C233.455 74.1313 238.182 62.7682 238.182 62.2517C237.577 61.5534 236.806 61.016 235.94 60.688C235.073 60.3601 234.138 60.252 233.218 60.3734ZM201.357 80.0946C201.192 76.7392 200.223 73.4716 198.529 70.5639C196.835 67.6562 194.466 65.1927 191.62 63.3786C188.237 61.5659 184.473 60.5664 180.631 60.4603C176.789 60.3543 172.975 61.1448 169.497 62.7682C164.578 65.3445 160.864 69.724 159.144 74.9765C157.368 80.8573 157.368 87.1266 159.144 93.0073C160.076 96.2213 161.816 99.1464 164.202 101.506C167.174 104.386 171.005 106.232 175.122 106.765C177.764 106.985 180.421 106.985 183.063 106.765C184.036 106.618 184.999 106.414 185.947 106.155C189.795 105.086 193.256 102.95 195.927 99.9982C198.597 97.0462 200.366 93.3998 201.027 89.4857C201.498 86.3782 201.61 83.2273 201.357 80.0946ZM181.693 103.572C176.965 104.981 173.42 100.426 172.238 90.8474C171.804 85.8324 171.804 80.7897 172.238 75.7748C173.184 68.0741 175.595 64.1768 179.329 64.1768C180.082 64.1304 180.836 64.264 181.527 64.5662C182.218 64.8685 182.826 65.3307 183.3 65.9142C186.467 69.0602 188.027 75.3052 188.027 84.6963C188.42 90.0111 187.579 95.3446 185.569 100.285C184.681 101.726 183.308 102.808 181.693 103.337V103.572ZM266.781 61.3125C265.447 61.1421 264.097 61.1421 262.763 61.3125C260.202 61.3104 257.671 61.8548 255.341 62.909L253.876 63.5194V53.3302C254.132 49.8915 254.132 46.4387 253.876 43C253.309 43 235.251 46.4277 234.967 46.5686C234.828 46.9153 234.828 47.3019 234.967 47.6486C234.967 48.6346 234.967 48.5877 237.095 49.0572C237.692 49.1903 238.266 49.4119 238.796 49.7146C239.719 50.5765 240.333 51.7141 240.545 52.9545C241.084 56.5279 241.258 60.1461 241.065 63.7542V104.981L242.342 105.263C244.233 105.685 249.574 106.577 251.323 106.765C254.816 107.041 258.325 107.041 261.818 106.765C265.694 106.372 269.389 104.935 272.505 102.61C275.62 100.285 278.038 97.1598 279.497 93.5708C280.367 91.2673 280.97 88.8728 281.293 86.4336C281.575 83.1296 281.464 79.8042 280.962 76.526C280.455 72.8514 278.822 69.4206 276.286 66.6991C273.749 63.9776 270.43 62.097 266.781 61.3125ZM254.396 102.774C254.396 102.164 253.923 81.5972 254.018 73.38V66.9472L255.389 66.6185C256.314 66.4869 257.253 66.4869 258.178 66.6185C259.201 66.5152 260.229 66.746 261.108 67.2759C262.874 68.4861 264.34 70.0783 265.396 71.9327C266.452 73.7871 267.071 75.8553 267.206 77.9817C267.551 81.4009 267.551 84.8457 267.206 88.2649C266.924 93.2344 264.996 97.9719 261.723 101.741C260.794 102.617 259.627 103.205 258.367 103.431C257.413 103.596 256.437 103.596 255.483 103.431C254.585 103.431 254.585 103.15 254.585 102.774H254.396Z" fill="white"/>
</g>
<defs>
<clipPath id="clip0_651_400">
<rect width="246" height="64" fill="white" transform="translate(114 43)"/>
</clipPath>
</defs>
</svg>
